<svg width="64" height="64" viewBox="0 0 64 64" fill="none" xmlns="http://www.w3.org/2000/svg">
<circle cx="32" cy="32" r="31.5" fill="#2D3036" stroke="url(#paint0_linear_126_387)"/>
<path d="M37.5725 24.0193C34.9464 24.0193 33.8365 25.2724 32.0076 25.2724C30.1324 25.2724 28.7021 24.0284 26.4264 24.0284C24.1988 24.0284 21.8234 25.3884 20.315 27.7052C18.1968 30.9722 18.5564 37.1253 21.9869 42.3672C23.214 44.2437 24.8528 46.3481 27.0021 46.3709H27.0412C28.9092 46.3709 29.4642 45.1477 32.0349 45.1334H32.074C34.6064 45.1334 35.1144 46.3637 36.9746 46.3637H37.0137C39.1631 46.3409 40.8898 44.0092 42.1169 42.1399C43.0001 40.7955 43.3283 40.1208 44.0057 38.5999C39.0432 36.7163 38.246 29.6813 43.1538 26.9841C41.6557 25.1083 39.5506 24.0219 37.566 24.0219L37.5725 24.0193Z" fill="white"/>
<path d="M36.9944 17C35.4312 17.1062 33.6075 18.1014 32.5393 19.4008C31.5701 20.5784 30.7729 22.3253 31.0855 24.0194H31.2106C32.8754 24.0194 34.5793 23.017 35.5745 21.7325C36.5332 20.51 37.2601 18.7775 36.9944 17Z" fill="white"/>
<defs>
<linearGradient id="paint0_linear_126_387" x1="-10.592" y1="25.5547" x2="24.0105" y2="73.2867" gradientUnits="userSpaceOnUse">
<stop stop-color="#40454A"/>
<stop offset="1" stop-color="#202329"/>
</linearGradient>
</defs>
</svg>
