<svg width="93" height="93" viewBox="0 0 93 93" fill="none" xmlns="http://www.w3.org/2000/svg">
<path d="M34.375 80.875H18.875C16.7437 80.875 14.9199 80.1168 13.4035 78.6004C11.8871 77.084 11.1276 75.2588 11.125 73.125V18.875C11.125 16.7437 11.8845 14.9199 13.4035 13.4035C14.9225 11.8871 16.7463 11.1276 18.875 11.125H34.375V18.875H18.875V73.125H34.375V80.875ZM42.125 88.625V3.375H49.875V88.625H42.125ZM57.625 80.875V73.125H65.375V80.875H57.625ZM57.625 18.875V11.125H65.375V18.875H57.625ZM73.125 80.875V73.125H80.875C80.875 75.2562 80.1168 77.0814 78.6004 78.6004C77.084 80.1194 75.2588 80.8776 73.125 80.875ZM73.125 65.375V57.625H80.875V65.375H73.125ZM73.125 49.875V42.125H80.875V49.875H73.125ZM73.125 34.375V26.625H80.875V34.375H73.125ZM73.125 18.875V11.125C75.2562 11.125 77.0814 11.8845 78.6004 13.4035C80.1194 14.9225 80.8776 16.7463 80.875 18.875H73.125Z" fill="url(#paint0_linear_137_984)"/>
<defs>
<linearGradient id="paint0_linear_137_984" x1="46" y1="3.375" x2="46" y2="88.625" gradientUnits="userSpaceOnUse">
<stop stop-color="#FEA500"/>
<stop offset="1" stop-color="#FF5900"/>
</linearGradient>
</defs>
</svg>
