<svg width="24" height="19" viewBox="0 0 24 19" fill="none" xmlns="http://www.w3.org/2000/svg">
<path d="M14.15 9.75C13.3167 9.75 12.6083 9.45833 12.025 8.875C11.4417 8.29167 11.15 7.58333 11.15 6.75C11.15 5.91667 11.4417 5.20833 12.025 4.625C12.6083 4.04167 13.3167 3.75 14.15 3.75C14.9833 3.75 15.6917 4.04167 16.275 4.625C16.8583 5.20833 17.15 5.91667 17.15 6.75C17.15 7.58333 16.8583 8.29167 16.275 8.875C15.6917 9.45833 14.9833 9.75 14.15 9.75ZM7.925 13.525C7.05875 13.525 6.31719 13.2166 5.70031 12.5997C5.08344 11.9828 4.775 11.2413 4.775 10.375V3.15C4.775 2.28375 5.08344 1.54219 5.70031 0.925313C6.31719 0.308438 7.05875 0 7.925 0H20.4C21.2662 0 22.0078 0.308438 22.6247 0.925313C23.2416 1.54219 23.55 2.28375 23.55 3.15V10.375C23.55 11.2413 23.2416 11.9828 22.6247 12.5997C22.0078 13.2166 21.2662 13.525 20.4 13.525H7.925ZM9.55 10.75H18.775C18.775 10.2 18.9708 9.72917 19.3625 9.3375C19.7542 8.94583 20.225 8.75 20.775 8.75V4.75C20.225 4.75 19.7542 4.55417 19.3625 4.1625C18.9708 3.77083 18.775 3.3 18.775 2.75H9.55C9.55 3.3 9.35417 3.77083 8.9625 4.1625C8.57083 4.55417 8.1 4.75 7.55 4.75V8.75C8.1 8.75 8.57083 8.94583 8.9625 9.3375C9.35417 9.72917 9.55 10.2 9.55 10.75ZM19.775 18.3H3.15C2.28375 18.3 1.54219 17.9916 0.925313 17.3747C0.308438 16.7578 0 16.0163 0 15.15V4.525H3.15V15.15H19.775V18.3ZM7.55 10.75V2.75V10.75Z" fill="white"/>
</svg>
