<svg width="89" height="89" viewBox="0 0 89 89" fill="none" xmlns="http://www.w3.org/2000/svg">
<path d="M61.1875 44.4976C61.1915 41.3075 60.1567 38.2029 58.2394 35.6532L65.6375 28.3107C67.0834 28.915 68.6318 29.2361 70.1988 29.2563C71.6161 29.3008 73.0282 29.0656 74.3546 28.564C75.6809 28.0624 76.8954 27.3044 77.9285 26.3332C78.9617 25.362 79.7934 24.1967 80.376 22.9039C80.9585 21.6111 81.2806 20.2162 81.3238 18.7988C81.3238 15.8483 80.1517 13.0186 78.0653 10.9323C75.979 8.84592 73.1493 7.67383 70.1988 7.67383C67.2482 7.67383 64.4185 8.84592 62.3322 10.9323C60.2459 13.0186 59.0738 15.8483 59.0738 18.7988C59.0809 20.5195 59.5413 22.2078 60.4088 23.6938L53.0106 31.092C50.41 29.6364 47.4802 28.8704 44.5 28.867C40.8203 28.8162 37.2271 29.9833 34.2795 32.1865C31.3318 34.3896 29.1951 37.5054 28.2019 41.0488H24.3638C23.5237 38.9715 22.0758 37.1963 20.2099 35.9556C18.3439 34.715 16.1468 34.0667 13.9063 34.0957C11.0532 34.0056 8.28064 35.0496 6.19558 36.9991C4.11052 38.9487 2.88283 41.6449 2.78125 44.4976C2.82441 45.9149 3.14648 47.3099 3.72905 48.6026C4.31162 49.8954 5.14328 51.0608 6.17647 52.032C7.20966 53.0032 8.42413 53.7612 9.75045 54.2628C11.0768 54.7643 12.489 54.9996 13.9063 54.9551C16.1468 54.9841 18.3439 54.3358 20.2099 53.0951C22.0758 51.8545 23.5237 50.0793 24.3638 48.002H28.2019C29.1951 51.5454 31.3318 54.6611 34.2795 56.8643C37.2271 59.0675 40.8203 60.2345 44.5 60.1838C46.6259 60.2506 48.7442 59.8977 50.7337 59.1454C52.7232 58.393 54.5449 57.2559 56.0947 55.7991C57.6445 54.3423 58.8919 52.5944 59.7658 50.6552C60.6397 48.716 61.1228 46.6236 61.1875 44.4976ZM70.1988 15.3501C71.2087 15.2571 72.2144 15.5676 72.9961 16.2138C73.7779 16.86 74.272 17.7894 74.3706 18.7988C74.2085 19.7883 73.6999 20.688 72.9357 21.3372C72.1715 21.9864 71.2015 22.3428 70.1988 22.3428C69.196 22.3428 68.226 21.9864 67.4618 21.3372C66.6976 20.688 66.189 19.7883 66.0269 18.7988C66.1393 17.7952 66.6372 16.8745 67.4156 16.231C68.1939 15.5875 69.1919 15.2717 70.1988 15.3501ZM13.9063 48.002C12.8907 48.0795 11.8852 47.7561 11.1053 47.101C10.3254 46.4459 9.83327 45.5113 9.73438 44.4976C9.84675 43.4939 10.3447 42.5732 11.1231 41.9297C11.9014 41.2863 12.8994 40.9704 13.9063 41.0488C14.9131 40.9704 15.9111 41.2863 16.6894 41.9297C17.4678 42.5732 17.9658 43.4939 18.0781 44.4976C17.9792 45.5113 17.4871 46.4459 16.7072 47.101C15.9273 47.7561 14.9218 48.0795 13.9063 48.002ZM44.5 53.2307C42.0539 53.3522 39.6587 52.5028 37.8357 50.8673C36.0126 49.2318 34.9093 46.9425 34.7656 44.4976C34.9091 42.0572 36.0143 39.7733 37.8391 38.1467C39.6639 36.52 42.0593 35.6833 44.5 35.8201C46.9371 35.6981 49.3243 36.5399 51.1458 38.1636C52.9672 39.7873 54.0767 42.0625 54.2344 44.4976C54.0766 46.9373 52.9691 49.218 51.1493 50.8506C49.3296 52.4832 46.9425 53.3377 44.5 53.2307Z" fill="url(#paint0_linear_137_735)"/>
<path d="M13.9062 24.3667C15.4764 24.3769 17.0309 24.0546 18.4675 23.4211L28.2575 33.378C29.6726 31.4828 31.4038 29.8457 33.375 28.5386L23.6963 18.8042C24.5637 17.3182 25.0241 15.6298 25.0312 13.9092C24.9297 11.0565 23.702 8.36029 21.6169 6.41077C19.5319 4.46124 16.7593 3.41724 13.9062 3.50734C11.0532 3.41724 8.28064 4.46124 6.19558 6.41077C4.11052 8.36029 2.88283 11.0565 2.78125 13.9092C2.82441 15.3265 3.14648 16.7215 3.72905 18.0143C4.31162 19.3071 5.14327 20.4724 6.17647 21.4436C7.20966 22.4148 8.42413 23.1728 9.75045 23.6744C11.0768 24.176 12.489 24.4112 13.9062 24.3667ZM13.9062 10.4605C14.9131 10.3821 15.9111 10.6979 16.6894 11.3414C17.4678 11.9848 17.9658 12.9056 18.0781 13.9092C17.9792 14.9229 17.4871 15.8575 16.7072 16.5126C15.9273 17.1677 14.9218 17.4911 13.9062 17.4136C12.8907 17.4911 11.8852 17.1677 11.1053 16.5126C10.3254 15.8575 9.83327 14.9229 9.73438 13.9092C9.84675 12.9056 10.3447 11.9848 11.1231 11.3414C11.9014 10.6979 12.8994 10.3821 13.9062 10.4605ZM75.0938 64.6948C73.5236 64.6846 71.9692 65.0069 70.5325 65.6405L60.7425 55.628C59.2964 57.4683 57.5469 59.0484 55.5694 60.3005L65.2481 69.9792C64.3977 71.4696 63.9563 73.1583 63.9688 74.8742C63.9687 77.8247 65.1408 80.6544 67.2272 82.7408C69.3135 84.8271 72.1432 85.9992 75.0938 85.9992C78.0443 85.9992 80.874 84.8271 82.9603 82.7408C85.0467 80.6544 86.2188 77.8247 86.2188 74.8742C86.0605 72.0609 84.8081 69.4211 82.7292 67.519C80.6504 65.6168 77.91 64.6032 75.0938 64.6948ZM75.0938 78.6011C74.0782 78.6786 73.0727 78.3552 72.2928 77.7001C71.5129 77.045 71.0208 76.1104 70.9219 75.0967C71.084 74.1072 71.5926 73.2075 72.3568 72.5583C73.121 71.9092 74.091 71.5527 75.0938 71.5527C76.0965 71.5527 77.0665 71.9092 77.8307 72.5583C78.5949 73.2075 79.1035 74.1072 79.2656 75.0967C79.1667 76.1104 78.6746 77.045 77.8947 77.7001C77.1148 78.3552 76.1093 78.6786 75.0938 78.6011Z" fill="url(#paint1_linear_137_735)"/>
<defs>
<linearGradient id="paint0_linear_137_735" x1="42.0525" y1="7.67383" x2="42.0525" y2="60.1918" gradientUnits="userSpaceOnUse">
<stop stop-color="#FEA500"/>
<stop offset="1" stop-color="#FF5900"/>
</linearGradient>
<linearGradient id="paint1_linear_137_735" x1="44.5" y1="3.50195" x2="44.5" y2="85.9992" gradientUnits="userSpaceOnUse">
<stop stop-color="#FEA500"/>
<stop offset="1" stop-color="#FF5900"/>
</linearGradient>
</defs>
</svg>
