<svg width="64" height="64" viewBox="0 0 64 64" fill="none" xmlns="http://www.w3.org/2000/svg">
<circle cx="32" cy="32" r="31.5" fill="#2D3036" stroke="url(#paint0_linear_126_413)"/>
<path fill-rule="evenodd" clip-rule="evenodd" d="M25.1458 19C22.858 19 20.7891 19.5718 19.2874 20.9662C17.7715 22.3738 17 24.4642 17 27.1458V37.0625C17 39.7443 17.7715 41.8345 19.2874 43.2421C20.7891 44.6366 22.858 45.2083 25.1458 45.2083H39.3125C41.6004 45.2083 43.6693 44.6366 45.1708 43.2421C46.6868 41.8345 47.4583 39.7443 47.4583 37.0625V27.1458C47.4583 24.4642 46.6868 22.3738 45.1708 20.9662C43.6693 19.5718 41.6004 19 39.3125 19H25.1458ZM42.4695 26.9508C42.9338 26.592 43.0194 25.9247 42.6605 25.4604C42.3018 24.996 41.6346 24.9105 41.1702 25.2693L33.3118 31.3414C32.6741 31.8343 31.7841 31.8343 31.1463 31.3414L23.288 25.2693C22.8237 24.9105 22.1564 24.996 21.7976 25.4604C21.4388 25.9247 21.5244 26.592 21.9887 26.9508L29.847 33.023C31.2501 34.1071 33.2081 34.1071 34.6112 33.023L42.4695 26.9508Z" fill="white" stroke="#2D3036" stroke-width="2.66667"/>
<defs>
<linearGradient id="paint0_linear_126_413" x1="-10.592" y1="25.5547" x2="24.0105" y2="73.2867" gradientUnits="userSpaceOnUse">
<stop stop-color="#40454A"/>
<stop offset="1" stop-color="#202329"/>
</linearGradient>
</defs>
</svg>
