<svg width="20" height="22" viewBox="0 0 20 22" fill="none" xmlns="http://www.w3.org/2000/svg">
<path d="M17.3371 1.77734H2.57165C2.32965 1.77734 2.09756 1.88035 1.92644 2.06369C1.75531 2.24703 1.65918 2.4957 1.65918 2.75499V18.5751C1.65918 18.7035 1.68278 18.8306 1.72864 18.9492C1.77449 19.0678 1.84171 19.1756 1.92644 19.2664C2.01117 19.3572 2.11176 19.4292 2.22246 19.4783C2.33317 19.5274 2.45182 19.5527 2.57165 19.5527H10.5184V12.6648H8.36168V9.99845H10.5184V7.99872C10.4737 7.52924 10.5255 7.05496 10.67 6.60917C10.8145 6.16337 11.0483 5.75685 11.355 5.41811C11.6616 5.07937 12.0338 4.81661 12.4452 4.64828C12.8567 4.47994 13.2976 4.4101 13.737 4.44365C14.3826 4.43939 15.0279 4.475 15.6697 4.5503V6.94998H14.3508C13.3056 6.94998 13.1065 7.48324 13.1065 8.25647V9.97179H15.5951L15.2716 12.6381H13.1065V19.5527H17.3371C17.4569 19.5527 17.5755 19.5274 17.6862 19.4783C17.7969 19.4292 17.8975 19.3572 17.9823 19.2664C18.067 19.1756 18.1342 19.0678 18.1801 18.9492C18.2259 18.8306 18.2495 18.7035 18.2495 18.5751V2.75499C18.2495 2.6266 18.2259 2.49947 18.1801 2.38086C18.1342 2.26225 18.067 2.15447 17.9823 2.06369C17.8975 1.97291 17.7969 1.90089 17.6862 1.85176C17.5755 1.80263 17.4569 1.77734 17.3371 1.77734Z" fill="white"/>
</svg>
