<svg width="64" height="64" viewBox="0 0 64 64" fill="none" xmlns="http://www.w3.org/2000/svg">
<circle cx="32" cy="32" r="31.5" fill="#2D3036" stroke="url(#paint0_linear_126_388)"/>
<path d="M44.0258 29.161H43.0079V29.1086H31.6358V34.1629H38.7769C37.735 37.1051 34.9356 39.2172 31.6358 39.2172C27.4489 39.2172 24.0543 35.8226 24.0543 31.6358C24.0543 27.4489 27.4489 24.0543 31.6358 24.0543C33.5684 24.0543 35.3267 24.7834 36.6654 25.9743L40.2394 22.4003C37.9827 20.2971 34.964 19 31.6358 19C24.6577 19 19 24.6577 19 31.6358C19 38.6139 24.6577 44.2715 31.6358 44.2715C38.6139 44.2715 44.2715 38.6139 44.2715 31.6358C44.2715 30.7885 44.1843 29.9615 44.0258 29.161Z" fill="#FFC107"/>
<path d="M20.4565 25.7544L24.608 28.799C25.7313 26.0179 28.4518 24.0543 31.6354 24.0543C33.568 24.0543 35.3263 24.7834 36.6651 25.9743L40.2391 22.4003C37.9823 20.2971 34.9637 19 31.6354 19C26.782 19 22.573 21.7401 20.4565 25.7544Z" fill="#FF3D00"/>
<path d="M31.6362 44.2713C34.9 44.2713 37.8656 43.0222 40.1078 40.991L36.1971 37.6817C34.886 38.6793 33.2836 39.2187 31.6362 39.217C28.3496 39.217 25.559 37.1213 24.5077 34.1968L20.3872 37.3715C22.4784 41.4636 26.7253 44.2713 31.6362 44.2713Z" fill="#4CAF50"/>
<path d="M44.0257 29.1611H43.0079V29.1086H31.6357V34.1629H38.7768C38.2785 35.5632 37.3808 36.7869 36.1947 37.6826L36.1966 37.6814L40.1074 40.9907C39.8307 41.2421 44.2715 37.9537 44.2715 31.6358C44.2715 30.7886 44.1843 29.9616 44.0257 29.1611Z" fill="#1976D2"/>
<defs>
<linearGradient id="paint0_linear_126_388" x1="-10.592" y1="25.5547" x2="24.0105" y2="73.2867" gradientUnits="userSpaceOnUse">
<stop stop-color="#40454A"/>
<stop offset="1" stop-color="#202329"/>
</linearGradient>
</defs>
</svg>
