<svg width="20" height="20" viewBox="0 0 20 20" fill="none" xmlns="http://www.w3.org/2000/svg">
<path d="M9.95435 7.89715C9.54748 7.89715 9.14974 8.0178 8.81143 8.24385C8.47313 8.4699 8.20945 8.79119 8.05375 9.1671C7.89804 9.543 7.8573 9.95664 7.93668 10.3557C8.01606 10.7548 8.21199 11.1213 8.49969 11.409C8.7874 11.6967 9.15395 11.8926 9.55301 11.972C9.95207 12.0514 10.3657 12.0107 10.7416 11.855C11.1175 11.6993 11.4388 11.4356 11.6649 11.0973C11.8909 10.759 12.0116 10.3612 12.0116 9.95435C12.0116 9.6842 11.9583 9.41669 11.855 9.1671C11.7516 8.9175 11.6 8.69072 11.409 8.49969C11.218 8.30866 10.9912 8.15713 10.7416 8.05375C10.492 7.95036 10.2245 7.89715 9.95435 7.89715ZM18.1915 5.86483C18.1871 5.22424 18.0691 4.58951 17.8431 3.99012C17.6766 3.55152 17.419 3.15322 17.0872 2.82149C16.7555 2.48976 16.3572 2.23214 15.9186 2.06564C15.3192 1.83957 14.6845 1.72161 14.0439 1.71725C12.9738 1.65918 12.6586 1.65918 9.95435 1.65918C7.25013 1.65918 6.93491 1.65918 5.86483 1.71725C5.22424 1.72161 4.58951 1.83957 3.99012 2.06564C3.55152 2.23214 3.15322 2.48976 2.82149 2.82149C2.48976 3.15322 2.23214 3.55152 2.06564 3.99012C1.83957 4.58951 1.72161 5.22424 1.71725 5.86483C1.65918 6.93491 1.65918 7.25013 1.65918 9.95435C1.65918 12.6586 1.65918 12.9738 1.71725 14.0439C1.72617 14.6867 1.84397 15.3234 2.06564 15.9269C2.2314 16.3635 2.4888 16.7595 2.8205 17.0882C3.15081 17.4219 3.54997 17.6795 3.99012 17.8431C4.58951 18.0691 5.22424 18.1871 5.86483 18.1915C6.93491 18.2495 7.25013 18.2495 9.95435 18.2495C12.6586 18.2495 12.9738 18.2495 14.0439 18.1915C14.6845 18.1871 15.3192 18.0691 15.9186 17.8431C16.3587 17.6795 16.7579 17.4219 17.0882 17.0882C17.4199 16.7595 17.6773 16.3635 17.8431 15.9269C18.0689 15.3246 18.1869 14.6871 18.1915 14.0439C18.2495 12.9738 18.2495 12.6586 18.2495 9.95435C18.2495 7.25013 18.2495 6.93491 18.1915 5.86483ZM16.0845 12.501C16.0579 13.0129 15.9486 13.5171 15.761 13.9941C15.5999 14.392 15.3605 14.7535 15.057 15.057C14.7535 15.3605 14.392 15.5999 13.9941 15.761C13.5126 15.9382 13.0055 16.0362 12.4927 16.0513C11.8374 16.0513 11.6632 16.0513 9.95435 16.0513C8.24555 16.0513 8.07135 16.0513 7.41603 16.0513C6.90316 16.0362 6.39613 15.9382 5.9146 15.761C5.50325 15.6081 5.13177 15.3642 4.82794 15.0476C4.52737 14.75 4.29526 14.3905 4.14773 13.9941C3.96985 13.5131 3.87449 13.0055 3.8657 12.4927C3.8657 11.8374 3.8657 11.6632 3.8657 9.95435C3.8657 8.24555 3.8657 8.07135 3.8657 7.41603C3.87449 6.90324 3.96985 6.39563 4.14773 5.9146C4.3006 5.50325 4.54447 5.13177 4.86112 4.82794C5.16002 4.529 5.51914 4.29712 5.9146 4.14773C6.39613 3.97055 6.90316 3.87251 7.41603 3.8574C8.07135 3.8574 8.24555 3.8574 9.95435 3.8574C11.6632 3.8574 11.8374 3.8574 12.4927 3.8574C13.0055 3.87251 13.5126 3.97055 13.9941 4.14773C14.4055 4.3006 14.7769 4.54447 15.0808 4.86112C15.3813 5.1587 15.6135 5.5182 15.761 5.9146C15.9382 6.39613 16.0362 6.90316 16.0513 7.41603C16.0513 8.07135 16.0513 8.24555 16.0513 9.95435C16.0513 11.6632 16.1094 11.8374 16.0845 12.4927V12.501ZM14.7573 6.32936C14.6585 6.06142 14.5028 5.81808 14.3008 5.61615C14.0989 5.41423 13.8556 5.25851 13.5876 5.15974C13.2197 5.03221 12.8322 4.97044 12.4429 4.97725C11.7959 4.97725 11.6134 4.97725 9.95435 4.97725C8.29532 4.97725 8.11282 4.97725 7.4658 4.97725C7.07449 4.98107 6.68694 5.05409 6.32107 5.19292C6.05722 5.2872 5.81647 5.43656 5.6148 5.63108C5.41314 5.82559 5.25519 6.0608 5.15145 6.32107C5.03098 6.69051 4.97213 7.07725 4.97725 7.4658C4.97725 8.11282 4.97725 8.29532 4.97725 9.95435C4.97725 11.6134 4.97725 11.7959 4.97725 12.4429C4.98547 12.8338 5.05835 13.2206 5.19292 13.5876C5.29169 13.8556 5.44741 14.0989 5.64934 14.3008C5.85126 14.5028 6.0946 14.6585 6.36254 14.7573C6.71647 14.8874 7.08891 14.9602 7.4658 14.9729C8.11282 14.9729 8.29532 14.9729 9.95435 14.9729C11.6134 14.9729 11.7959 14.9729 12.4429 14.9729C12.8342 14.9691 13.2218 14.8961 13.5876 14.7573C13.8556 14.6585 14.0989 14.5028 14.3008 14.3008C14.5028 14.0989 14.6585 13.8556 14.7573 13.5876C14.8961 13.2218 14.9691 12.8342 14.9729 12.4429C14.9729 11.7959 14.9729 11.6134 14.9729 9.95435C14.9729 8.29532 14.9729 8.11282 14.9729 7.4658C14.9732 7.0741 14.9 6.68582 14.7573 6.32107V6.32936ZM9.95435 13.1231C9.53862 13.1231 9.12696 13.0411 8.74298 12.8817C8.35899 12.7224 8.01022 12.4889 7.71663 12.1945C7.42305 11.9001 7.19042 11.5508 7.03208 11.1664C6.87374 10.782 6.7928 10.3701 6.79389 9.95435C6.79389 9.32728 6.97995 8.7143 7.32851 8.19303C7.67706 7.67175 8.17244 7.26561 8.75194 7.02602C9.33144 6.78643 9.969 6.72416 10.5839 6.8471C11.1988 6.97005 11.7634 7.27266 12.2062 7.71665C12.6491 8.16064 12.9502 8.72604 13.0715 9.34126C13.1929 9.95648 13.1289 10.5939 12.8878 11.1727C12.6467 11.7516 12.2393 12.2459 11.7171 12.5931C11.1949 12.9403 10.5814 13.1248 9.95435 13.1231ZM13.2724 7.40774C13.0891 7.38833 12.9194 7.30174 12.796 7.16466C12.6727 7.02758 12.6044 6.84971 12.6044 6.66532C12.6044 6.48092 12.6727 6.30305 12.796 6.16597C12.9194 6.02889 13.0891 5.94231 13.2724 5.9229C13.4558 5.94231 13.6255 6.02889 13.7488 6.16597C13.8722 6.30305 13.9404 6.48092 13.9404 6.66532C13.9404 6.84971 13.8722 7.02758 13.7488 7.16466C13.6255 7.30174 13.4558 7.38833 13.2724 7.40774Z" fill="white"/>
</svg>
