<svg width="103" height="103" viewBox="0 0 103 103" fill="none" xmlns="http://www.w3.org/2000/svg">
<path d="M81.5279 41.7022C79.7163 41.701 78.2465 43.1689 78.2454 44.9805L78.2411 51.5413C78.2318 66.0117 66.4512 77.7772 51.9807 77.7678C37.5103 77.7585 25.7449 65.9779 25.7542 51.5075L25.7585 44.9466C25.7596 43.135 24.2918 41.6652 22.4801 41.6641C20.6685 41.6629 19.1988 43.1308 19.1976 44.9424L19.1934 51.5032C19.1824 68.484 32.1433 82.4982 48.6962 84.1604L48.6918 90.8875L43.7712 90.8843C41.9596 90.8831 40.4898 92.351 40.4887 94.1626C40.4875 95.9742 41.9554 97.444 43.767 97.4451L60.1691 97.4557C61.9807 97.4569 63.4505 95.989 63.4517 94.1774C63.4528 92.3658 61.985 90.896 60.1734 90.8949L55.2527 90.8917L55.257 84.1646C71.812 82.5238 84.791 68.5264 84.802 51.5456L84.8062 44.9847C84.8074 43.1731 83.3395 41.7033 81.5279 41.7022Z" fill="url(#paint0_linear_137_976)"/>
<path d="M44.4096 8.30791C44.408 7.32792 44.4476 6.42075 44.4983 6.28934C44.5759 6.09302 45.0006 6.05186 46.9542 6.05186C48.9142 6.05186 49.3325 6.09302 49.3975 6.28934C49.4403 6.42075 49.4767 7.41816 49.4767 8.50581C49.4767 10.3518 49.5021 10.5149 49.8475 10.9202C50.0519 11.1592 50.4258 11.4506 50.6793 11.5677C50.9566 11.6959 51.3765 11.7434 51.7346 11.6864C52.061 11.6358 52.5427 11.4157 52.8041 11.1972C53.0671 10.9772 53.3492 10.537 53.4363 10.2077C53.5235 9.88161 53.6074 8.81137 53.6534 6.04395L58.429 6.13102L58.5082 8.27625C58.57 9.95443 58.6477 10.5149 58.8647 10.8489C59.0168 11.0848 59.3908 11.3825 59.6966 11.5139C60.0024 11.6453 60.4112 11.7514 60.6077 11.7514C60.8041 11.7529 61.2034 11.6279 61.4965 11.4743C61.7897 11.3223 62.1636 10.9471 62.3284 10.6431C62.5772 10.1856 62.6294 9.75337 62.6279 8.14959C62.6279 6.4065 62.6564 6.21018 62.9051 6.21176C63.0572 6.21335 63.5389 6.31151 63.9747 6.43183C64.4104 6.55057 65.087 6.79438 65.4799 6.9717C65.8729 7.1506 66.4591 7.4609 66.7855 7.66355C67.1119 7.8662 67.8455 8.49315 68.4159 9.05993C69.0846 9.72329 69.6724 10.5101 70.0717 11.2764C70.4108 11.9287 70.7974 12.8913 70.9289 13.4137C71.0604 13.9362 71.1888 14.7547 71.2632 16.1051L56.3106 16.2635L55.8194 16.7384C55.5484 16.9996 55.2648 17.4271 55.1872 17.6883C55.1064 17.9622 55.1064 18.3976 55.1872 18.7174C55.2648 19.023 55.5484 19.4853 56.3106 20.2214L63.6736 20.3006C69.9877 20.3687 71.0589 20.413 71.1872 20.6172C71.2696 20.7471 71.3425 21.3883 71.3472 22.0421C71.3536 22.8242 71.287 23.2928 71.1507 23.4147C71.0018 23.5493 69.0054 23.6047 63.8162 23.6206C57.9964 23.638 56.5989 23.6839 56.2107 23.8691C55.9493 23.9926 55.6102 24.3092 55.4581 24.5721C55.306 24.8349 55.1777 25.3526 55.1761 25.723C55.1713 26.1885 55.2806 26.5384 55.5326 26.8598C55.7306 27.1147 56.1252 27.4171 56.4088 27.5326C56.8097 27.6957 58.5193 27.7416 71.3425 27.7416V29.1665C71.3425 30.2557 71.2838 30.6468 71.0937 30.8288C70.8798 31.0331 69.8372 31.0663 63.7259 31.0663C58.3561 31.0663 56.5054 31.1154 56.1949 31.2642C55.9699 31.3735 55.6372 31.7107 55.4565 32.0162C55.2521 32.3598 55.138 32.811 55.1523 33.2036C55.165 33.5519 55.2838 33.9968 55.4169 34.1931C55.5484 34.3894 55.8495 34.6744 56.084 34.8264C56.4722 35.0765 57.2153 35.1114 71.2632 35.2618V36.731C71.2632 37.8646 71.2094 38.235 71.0256 38.3522C70.8846 38.4408 67.8947 38.5042 63.6578 38.5073C58.3213 38.5105 56.431 38.5612 56.141 38.7068C55.9271 38.8145 55.6134 39.1517 55.4423 39.4572C55.2711 39.7628 55.1301 40.2251 55.1301 40.4863C55.1301 40.7475 55.2696 41.2098 55.4407 41.5154C55.6118 41.821 55.9445 42.1582 56.179 42.2674C56.5023 42.4162 58.383 42.4653 63.8162 42.4653C70.8671 42.4653 71.0287 42.4716 71.184 42.782C71.2712 42.9561 71.3441 43.6511 71.3456 44.3256C71.3472 45.0792 71.2728 45.6285 71.1555 45.7504C71.0066 45.9024 69.3175 45.9483 63.7845 45.9483C57.7207 45.9483 56.5324 45.9848 56.1315 46.1858C55.8701 46.3156 55.5389 46.6544 55.3947 46.9378C55.2505 47.2212 55.1428 47.6835 55.1571 47.9669C55.1697 48.2503 55.2886 48.6952 55.4185 48.9564C55.55 49.2176 55.8701 49.539 56.1315 49.6688C56.5324 49.8683 57.697 49.9063 63.5389 49.9079C68.7946 49.9111 70.5661 49.9586 70.8671 50.1106C71.2125 50.2847 71.2696 50.4304 71.3124 51.2552C71.3393 51.7761 71.3219 52.4331 71.184 53.231L64.1727 53.2326C60.0325 53.2326 56.9174 53.2975 56.5672 53.3909C56.2377 53.478 55.7972 53.7598 55.5769 54.0226C55.2838 54.3741 55.1808 54.6828 55.1808 55.21C55.1808 55.6027 55.2696 56.1077 55.3789 56.3341C55.4882 56.5589 55.7908 56.8803 56.0523 57.0465C56.5023 57.3315 56.9206 57.3473 63.7766 57.3473C70.5185 57.3473 71.0367 57.3663 71.1729 57.6244C71.2632 57.7922 71.2664 58.3067 71.1824 58.9305C71.1048 59.4957 70.9559 60.1733 70.8513 60.4346C70.7467 60.6958 70.6326 61.052 70.5994 61.2262C70.5677 61.4003 70.2444 62.0415 69.8848 62.651C69.5235 63.2606 68.7772 64.2041 68.2258 64.7488C67.4764 65.4881 66.8521 65.9156 65.7572 66.438C64.9507 66.8212 63.9176 67.2138 63.4597 67.3088C62.9067 67.4228 58.86 67.4798 51.4177 67.4782C41.6066 67.4782 40.0792 67.4449 39.1776 67.2201C38.612 67.0792 37.685 66.7293 37.1178 66.4412C36.5521 66.1546 35.8059 65.6828 35.462 65.3947C35.1182 65.105 34.5605 64.5825 34.223 64.2342C33.8855 63.8859 33.3578 63.1735 33.0505 62.651C32.7447 62.1286 32.3485 61.2737 32.1711 60.7512C31.9952 60.2287 31.8051 59.3168 31.7512 58.7247C31.6704 57.8635 31.6989 57.6196 31.889 57.5009C32.0285 57.4138 35.0928 57.3537 46.387 57.3568L46.9416 56.9895C47.3044 56.7489 47.5658 56.4069 47.7005 55.9953C47.813 55.6502 47.8685 55.191 47.8225 54.9725C47.7782 54.7556 47.5785 54.3678 47.3805 54.1129C47.1824 53.858 46.7894 53.5556 46.5058 53.44C46.1049 53.2769 44.4096 53.231 31.7306 53.231V51.6478C31.7306 50.3813 31.7781 50.0488 31.9683 49.9855C32.0998 49.9427 35.3781 49.9063 39.2568 49.9063C45.6518 49.9063 46.3601 49.881 46.8718 49.6293C47.2996 49.4187 47.4977 49.1796 47.6894 48.6398C47.8954 48.0587 47.9065 47.8244 47.756 47.3732C47.6546 47.0677 47.3947 46.6228 46.7831 45.9483H39.4945C35.4858 45.9483 32.0982 45.9119 31.9683 45.8692C31.7781 45.8059 31.7306 45.4734 31.7306 44.2068C31.7306 42.9403 31.7781 42.6078 31.9683 42.5445C32.0998 42.5017 35.4509 42.4653 46.6247 42.4653L47.1 42.0695C47.3614 41.8526 47.6514 41.4062 47.7449 41.08C47.8732 40.632 47.8637 40.3327 47.7053 39.8594C47.569 39.4509 47.3012 39.1026 46.387 38.4978L39.2965 38.5026C35.3971 38.5057 32.0982 38.4709 31.9683 38.4282C31.7781 38.3648 31.7306 38.0324 31.7306 35.1826L38.7419 35.181C42.8821 35.181 45.9972 35.1161 46.3474 35.0227C46.6738 34.9372 47.0857 34.7061 47.2616 34.5098C47.4391 34.3134 47.6593 33.905 47.7544 33.5994C47.8891 33.1609 47.8716 32.9044 47.6704 32.3725C47.5088 31.945 47.2299 31.584 46.9019 31.383C46.4076 31.0806 46.1018 31.0679 39.4153 31.0647C35.5809 31.0632 32.2836 31.0267 32.0871 30.9856C31.7464 30.9112 31.7306 30.8383 31.7306 27.7416H38.94C45.0307 27.7416 46.2238 27.7052 46.6247 27.5041C46.8861 27.3743 47.2442 27.0703 47.4201 26.8313C47.5959 26.5922 47.775 26.1996 47.8162 25.9605C47.8574 25.7215 47.7623 25.2228 47.6054 24.8523C47.3979 24.3678 47.1555 24.1019 46.734 23.9024C46.2048 23.6522 45.4886 23.6253 39.1776 23.6253C35.3432 23.6253 32.0982 23.5905 31.9683 23.5462C31.7797 23.4828 31.7306 23.1599 31.7306 21.963C31.7306 20.5317 31.748 20.4558 32.0871 20.3813C32.2836 20.3402 35.527 20.3038 39.2965 20.3022C45.4981 20.3006 46.2032 20.2737 46.7166 20.0235C47.1127 19.8304 47.382 19.5312 47.6102 19.034C47.8859 18.434 47.9097 18.2345 47.7639 17.7675C47.6672 17.4619 47.3678 16.9996 46.6041 16.2635L31.6514 16.1051L31.7005 15.3135C31.7274 14.8782 31.8526 14.0945 31.9794 13.572C32.1061 13.0496 32.469 12.0886 32.7859 11.4347C33.2137 10.5529 33.6716 9.94177 34.5668 9.05676C35.2291 8.4029 36.0911 7.68097 36.484 7.45299C36.877 7.22501 37.7674 6.84187 38.4646 6.60281C39.1618 6.36217 39.8574 6.21176 40.0095 6.26718C40.2503 6.35583 40.2868 6.5949 40.2868 8.11001C40.2868 9.22933 40.3644 10.0352 40.5038 10.3661C40.6243 10.6495 40.8904 11.0421 41.098 11.24C41.3056 11.4379 41.7603 11.6421 42.1089 11.6944C42.5795 11.7656 42.9154 11.7039 43.4161 11.4537C43.9041 11.2099 44.1339 10.9772 44.2511 10.6035C44.3398 10.3202 44.4111 9.28791 44.4096 8.30791Z" fill="url(#paint1_linear_137_976)"/>
<defs>
<linearGradient id="paint0_linear_137_976" x1="51.9998" y1="41.6641" x2="51.9998" y2="97.4557" gradientUnits="userSpaceOnUse">
<stop stop-color="#FEA500"/>
<stop offset="1" stop-color="#FF5900"/>
</linearGradient>
<linearGradient id="paint1_linear_137_976" x1="51.4995" y1="6.04395" x2="51.4995" y2="67.4782" gradientUnits="userSpaceOnUse">
<stop stop-color="#FEA500"/>
<stop offset="1" stop-color="#FF5900"/>
</linearGradient>
</defs>
</svg>
