<svg width="20" height="20" viewBox="0 0 20 20" fill="none" xmlns="http://www.w3.org/2000/svg">
<path d="M16.9804 1.65881H2.92837C2.77042 1.65661 2.61357 1.68556 2.4668 1.74399C2.32003 1.80241 2.18621 1.88918 2.07297 1.99933C1.95974 2.10949 1.86931 2.24087 1.80686 2.38597C1.74441 2.53107 1.71115 2.68706 1.70898 2.84502V17.0629C1.71115 17.2209 1.74441 17.3769 1.80686 17.522C1.86931 17.6671 1.95974 17.7985 2.07297 17.9086C2.18621 18.0188 2.32003 18.1055 2.4668 18.164C2.61357 18.2224 2.77042 18.2513 2.92837 18.2492H16.9804C17.1384 18.2513 17.2952 18.2224 17.442 18.164C17.5887 18.1055 17.7226 18.0188 17.8358 17.9086C17.949 17.7985 18.0395 17.6671 18.1019 17.522C18.1644 17.3769 18.1976 17.2209 18.1998 17.0629V2.84502C18.1976 2.68706 18.1644 2.53107 18.1019 2.38597C18.0395 2.24087 17.949 2.10949 17.8358 1.99933C17.7226 1.88918 17.5887 1.80241 17.442 1.74399C17.2952 1.68556 17.1384 1.65661 16.9804 1.65881ZM6.71097 15.5449H4.22242V8.07927H6.71097V15.5449ZM5.4667 7.03408C5.1235 7.03408 4.79435 6.89774 4.55167 6.65506C4.30899 6.41238 4.17265 6.08324 4.17265 5.74003C4.17265 5.39683 4.30899 5.06768 4.55167 4.825C4.79435 4.58232 5.1235 4.44599 5.4667 4.44599C5.64894 4.42532 5.83349 4.44338 6.00827 4.49898C6.18305 4.55458 6.34411 4.64647 6.48091 4.76864C6.61772 4.8908 6.72717 5.04048 6.80211 5.20788C6.87706 5.37528 6.9158 5.55662 6.9158 5.74003C6.9158 5.92344 6.87706 6.10478 6.80211 6.27218C6.72717 6.43958 6.61772 6.58926 6.48091 6.71143C6.34411 6.83359 6.18305 6.92549 6.00827 6.98109C5.83349 7.03669 5.64894 7.05475 5.4667 7.03408ZM15.6864 15.5449H13.1978V11.5384C13.1978 10.5346 12.8411 9.87932 11.9369 9.87932C11.6571 9.88137 11.3846 9.96914 11.1562 10.1308C10.9278 10.2925 10.7544 10.5203 10.6595 10.7835C10.5946 10.9785 10.5664 11.1838 10.5765 11.389V15.5366H8.08797C8.08797 15.5366 8.08797 8.75118 8.08797 8.07098H10.5765V9.12446C10.8026 8.73219 11.1314 8.40902 11.5275 8.18977C11.9236 7.97051 12.3721 7.86347 12.8245 7.88019C14.4836 7.88019 15.6864 8.95027 15.6864 11.248V15.5449Z" fill="white"/>
</svg>
