<svg width="64" height="64" viewBox="0 0 64 64" fill="none" xmlns="http://www.w3.org/2000/svg">
<circle cx="32" cy="32" r="31.5" fill="#2D3036" stroke="url(#paint0_linear_126_402)"/>
<path d="M29.8647 30.2836L32.0163 28.3105C32.6051 27.7703 33.0192 27.0665 33.2053 26.2894C33.3915 25.5123 33.3412 24.6973 33.0611 23.949L32.1416 21.4945C31.7989 20.5784 31.1195 19.8277 30.2421 19.3954C29.3647 18.9631 28.3554 18.8819 27.4202 19.1684C23.9792 20.2212 21.3342 23.4196 22.1484 27.2186C22.6838 29.7172 23.7075 32.8534 25.6496 36.1912C27.2768 39.0023 29.3241 41.5483 31.7205 43.741C34.5981 46.3599 38.7089 45.7052 41.3539 43.2397C42.0624 42.5784 42.4923 41.6719 42.556 40.7048C42.6197 39.7376 42.3125 38.7826 41.6968 38.034L40.0113 35.9866C39.5034 35.3692 38.8225 34.9177 38.056 34.6901C37.2896 34.4625 36.4726 34.4692 35.71 34.7093L32.9267 35.5866C32.8191 35.4763 32.6968 35.3453 32.5597 35.1935C31.9873 34.5606 31.481 33.8709 31.0488 33.1351C30.6278 32.3927 30.2838 31.6093 30.0221 30.797C29.9661 30.627 29.9136 30.4558 29.8647 30.2836Z" fill="white"/>
<defs>
<linearGradient id="paint0_linear_126_402" x1="-10.592" y1="25.5547" x2="24.0105" y2="73.2867" gradientUnits="userSpaceOnUse">
<stop stop-color="#40454A"/>
<stop offset="1" stop-color="#202329"/>
</linearGradient>
</defs>
</svg>
