<svg width="107" height="107" viewBox="0 0 107 107" fill="none" xmlns="http://www.w3.org/2000/svg">
<path d="M40.6034 24.2864C43.2694 16.4843 54.0497 16.248 57.2107 23.5775L57.4782 24.2909L61.076 34.8125C61.9006 37.2255 63.233 39.4336 64.9834 41.2879C66.7339 43.1422 68.8617 44.5995 71.2232 45.5616L72.1906 45.9227L82.7123 49.5161C90.5144 52.1822 90.7507 62.9624 83.4256 66.1234L82.7123 66.3909L72.1906 69.9888C69.7768 70.8128 67.5678 72.1449 65.7128 73.8954C63.8577 75.6459 62.3997 77.7739 61.4372 80.1359L61.076 81.0989L57.4826 91.6251C54.8165 99.4271 44.0363 99.6634 40.8798 92.3384L40.6034 91.6251L37.0099 81.1034C36.186 78.6896 34.8538 76.4806 33.1033 74.6255C31.3528 72.7704 29.2248 71.3124 26.8628 70.3499L25.8998 69.9888L15.3781 66.3953C7.57157 63.7293 7.33528 52.949 14.6648 49.7925L15.3781 49.5161L25.8998 45.9227C28.3128 45.0981 30.5209 43.7657 32.3752 42.0153C34.2294 40.2648 35.6868 38.1371 36.6488 35.7755L37.0099 34.8125L40.6034 24.2864ZM84.7097 8.91406C85.5437 8.91406 86.3611 9.14803 87.0688 9.58937C87.7765 10.0307 88.3462 10.6617 88.7132 11.4107L88.9272 11.9324L90.4876 16.5066L95.0664 18.067C95.9022 18.351 96.635 18.8767 97.1717 19.5776C97.7085 20.2784 98.0251 21.1228 98.0814 22.0038C98.1378 22.8848 97.9313 23.7627 97.4882 24.5262C97.0451 25.2897 96.3853 25.9045 95.5924 26.2926L95.0664 26.5066L90.4921 28.0671L88.9317 32.6458C88.6472 33.4814 88.1211 34.2138 87.42 34.7501C86.7189 35.2864 85.8743 35.6025 84.9934 35.6584C84.1124 35.7142 83.2347 35.5073 82.4715 35.0639C81.7082 34.6204 81.0938 33.9604 80.7061 33.1674L80.4921 32.6458L78.9317 28.0715L74.3529 26.5111C73.5171 26.2271 72.7843 25.7014 72.2476 25.0006C71.7108 24.2997 71.3942 23.4553 71.3379 22.5743C71.2815 21.6933 71.488 20.8154 71.9311 20.0519C72.3742 19.2884 73.034 18.6736 73.8269 18.2855L74.3529 18.0715L78.9272 16.5111L80.4876 11.9324C80.7882 11.0515 81.357 10.2868 82.1142 9.74554C82.8713 9.20425 83.7789 8.9135 84.7097 8.91406Z" fill="url(#paint0_linear_137_728)"/>
<defs>
<linearGradient id="paint0_linear_137_728" x1="53.7152" y1="8.91406" x2="53.7152" y2="97.66" gradientUnits="userSpaceOnUse">
<stop stop-color="#FEA500"/>
<stop offset="1" stop-color="#FF5900"/>
</linearGradient>
</defs>
</svg>
