<svg width="103" height="103" viewBox="0 0 103 103" fill="none" xmlns="http://www.w3.org/2000/svg">
<path d="M41.7205 9.30662C41.4832 9.31895 41.1503 9.34669 40.9808 9.36518C40.8113 9.38675 40.4723 9.44222 40.2258 9.49153C39.9793 9.54084 39.6125 9.63021 39.4091 9.68877C39.2057 9.74732 38.8452 9.87367 38.6079 9.96921C38.3706 10.0647 38.0377 10.2158 37.8682 10.3051C37.6987 10.3945 37.4337 10.5486 37.2827 10.6472C37.1286 10.7458 36.8667 10.9307 36.6972 11.0602C36.5277 11.1896 36.1856 11.4947 35.939 11.7412C35.6925 11.9878 35.3966 12.3052 35.2826 12.45C35.1686 12.5949 34.9899 12.8322 34.8851 12.9832C34.7803 13.1311 34.5985 13.4085 34.4844 13.5996C34.3704 13.7875 34.1947 14.105 34.0961 14.2991C33.9944 14.4933 33.828 14.8508 33.7263 15.0911C33.6215 15.3346 33.449 15.7999 33.3411 16.1235C33.2332 16.4502 33.0884 16.9402 33.0206 17.2114C32.9497 17.4826 32.8511 17.9202 32.8018 18.1822C32.7494 18.4441 32.6878 18.7924 32.66 18.9526C32.6354 19.1129 32.5861 19.4796 32.5522 19.7693C32.5183 20.0559 32.4998 20.3024 32.5121 20.3117C32.5275 20.3209 32.66 20.3548 32.8141 20.3826C32.9651 20.4134 33.5013 20.5274 34.0006 20.6353C34.4998 20.7462 35.2919 20.9311 35.7572 21.0482C36.2226 21.1653 36.9375 21.3533 37.3443 21.4643C37.7511 21.5752 38.4784 21.7848 38.9623 21.9296C39.4461 22.0745 40.3737 22.3703 41.0271 22.5891C41.6804 22.8048 42.5741 23.1161 43.0148 23.2764C43.4555 23.4366 44.0595 23.6616 44.3554 23.7756C44.6512 23.8896 45.2121 24.1115 45.6035 24.2687C45.9918 24.4259 46.639 24.694 47.0365 24.8635C47.4341 25.033 48.1275 25.3381 48.5774 25.5415C49.0274 25.7418 49.7115 26.0592 50.1029 26.2441C50.4912 26.429 51.2678 26.8081 51.8287 27.0916C52.3865 27.372 53.1785 27.7788 53.5853 27.9977C53.9921 28.2134 54.6855 28.5924 55.1262 28.839C55.5669 29.0855 56.3158 29.5139 56.7904 29.7943C57.265 30.0748 58.02 30.5309 58.47 30.8113C58.9199 31.0918 59.6041 31.5294 59.9955 31.7821C60.3838 32.0348 61.0094 32.4539 61.3823 32.7066C61.7552 32.9624 62.3499 33.3784 62.7074 33.6342C63.0618 33.8869 63.5703 34.2537 63.8323 34.4478C64.0942 34.6451 64.5811 35.0118 64.9109 35.2676C65.2406 35.5203 65.7553 35.924 66.0512 36.1613C66.347 36.3986 66.874 36.83 67.2222 37.1228C67.5705 37.4125 68.1375 37.8994 68.4858 38.2045C68.834 38.5096 69.4072 39.0274 69.7647 39.354C70.1191 39.6838 70.905 40.445 71.509 41.0459C72.1099 41.65 72.791 42.3434 73.0191 42.5899C73.2471 42.8364 73.6354 43.2679 73.885 43.5453C74.1316 43.8257 74.5107 44.2602 74.7264 44.516C74.9421 44.7687 75.3581 45.2772 75.6509 45.6409C75.9406 46.0045 76.3474 46.5253 76.5508 46.7965C76.7542 47.0677 77.05 47.4684 77.2072 47.6903C77.3675 47.9091 77.6911 48.3806 77.9314 48.7381C78.1687 49.0925 78.517 49.6287 78.6988 49.9246C78.8837 50.2204 79.0378 50.4824 79.044 50.5008C79.0501 50.5224 79.0686 50.5409 79.0871 50.5409C79.1025 50.5409 79.1179 50.5101 79.1179 50.47C79.1179 50.433 79.007 49.9585 78.8745 49.4161C78.7389 48.8737 78.5108 48.02 78.366 47.5208C78.2242 47.0215 78.0146 46.3281 77.9037 45.9799C77.7897 45.6316 77.6078 45.0831 77.4969 44.7626C77.3829 44.439 77.1856 43.8843 77.0531 43.5298C76.9206 43.1724 76.6741 42.5344 76.5046 42.1122C76.3351 41.6869 76.0885 41.0922 75.9591 40.7871C75.8297 40.482 75.6016 39.9611 75.4506 39.6314C75.3027 39.3016 75.0315 38.7192 74.8497 38.337C74.6709 37.9549 74.3381 37.2831 74.1131 36.8424C73.8881 36.4017 73.5522 35.7637 73.3704 35.4248C73.1886 35.0858 72.865 34.5033 72.6554 34.1304C72.4428 33.7575 72.0945 33.1596 71.8819 32.8052C71.6692 32.4477 71.3364 31.9023 71.1423 31.5879C70.945 31.2736 70.5043 30.5864 70.1561 30.0624C69.8109 29.5355 69.3302 28.8297 69.0929 28.4907C68.8556 28.1517 68.4519 27.5909 68.1992 27.2426C67.9434 26.8944 67.5273 26.3397 67.2746 26.0099C67.0188 25.6801 66.6429 25.1994 66.4395 24.9467C66.2361 24.6909 65.8539 24.2286 65.592 23.9143C65.33 23.5999 64.8832 23.0791 64.6027 22.7586C64.3192 22.435 63.8908 21.9574 63.6474 21.6954C63.4039 21.4334 62.9077 20.9065 62.541 20.5274C62.1743 20.1483 61.5641 19.5382 61.1819 19.1745C60.7998 18.8078 60.2666 18.3085 59.9955 18.0651C59.7243 17.8185 59.2651 17.4148 58.9785 17.1683C58.6888 16.9186 58.2327 16.5365 57.9615 16.3146C57.6903 16.0927 57.2527 15.7476 56.9907 15.5442C56.7288 15.3438 56.2757 15.0048 55.9891 14.7922C55.6994 14.5826 55.154 14.1974 54.7718 13.9416C54.3897 13.6858 53.8504 13.3314 53.5699 13.1589C53.2895 12.9832 52.7502 12.6627 52.368 12.4439C51.9859 12.2251 51.3202 11.8707 50.8888 11.6519C50.4573 11.4361 49.8872 11.1649 49.6252 11.0509C49.3633 10.9338 48.975 10.7705 48.7623 10.6873C48.5497 10.601 48.1676 10.4561 47.9149 10.3637C47.6591 10.2712 47.2245 10.1264 46.9441 10.0432C46.6637 9.95688 46.2137 9.83361 45.9425 9.76581C45.6713 9.69801 45.2337 9.60248 44.9718 9.55317C44.7098 9.50694 44.266 9.43606 43.9856 9.40216C43.7051 9.36518 43.2059 9.32203 42.8761 9.30662C42.5464 9.29121 42.2475 9.27889 42.2136 9.28197C42.1797 9.28197 41.9578 9.2943 41.7205 9.30662ZM20.7181 22.1762C20.5918 22.1823 20.1819 22.2101 19.809 22.2347C19.4361 22.2624 18.8752 22.3118 18.5609 22.3457C18.2465 22.3796 17.7473 22.4412 17.4514 22.4843C17.1556 22.5275 16.6902 22.6045 16.419 22.6538C16.1478 22.7062 15.6763 22.8018 15.3712 22.8726C15.0661 22.9404 14.5114 23.0822 14.1385 23.1901C13.7656 23.2979 13.2047 23.4767 12.8904 23.5907C12.576 23.7047 12.1261 23.8804 11.8888 23.9821C11.6515 24.0838 11.2416 24.2749 10.9797 24.4074C10.7177 24.5368 10.3633 24.7248 10.1938 24.8234C10.0243 24.922 9.74695 25.0915 9.57745 25.2025C9.40795 25.3103 9.08745 25.5353 8.86864 25.7017C8.64675 25.8681 8.34166 26.1116 8.19065 26.2441C8.03656 26.3766 7.77461 26.6263 7.60819 26.7958C7.43869 26.9653 7.19523 27.2303 7.06888 27.3813C6.93944 27.5354 6.72988 27.8035 6.59737 27.9822C6.46793 28.161 6.2707 28.4568 6.15667 28.6448C6.04264 28.8297 5.8639 29.1626 5.75604 29.3845C5.65126 29.6033 5.49409 29.9731 5.4078 30.2011C5.32459 30.4292 5.21056 30.7682 5.15817 30.9562C5.10578 31.1411 5.02257 31.5016 4.97327 31.7574C4.92087 32.0101 4.85616 32.42 4.82534 32.6666C4.78528 33.0056 4.77295 33.3384 4.77295 34.0379C4.77295 34.6975 4.78836 35.095 4.82534 35.4248C4.85308 35.6775 4.91163 36.1027 4.95477 36.3647C4.99792 36.6266 5.08421 37.0643 5.14276 37.3355C5.2044 37.6067 5.32767 38.0843 5.41704 38.3987C5.5095 38.713 5.6605 39.1969 5.75912 39.4773C5.85466 39.7577 6.0334 40.2354 6.15667 40.5405C6.27994 40.8456 6.48642 41.3295 6.61894 41.6191C6.75146 41.9057 6.94869 42.3218 7.05655 42.5437C7.1675 42.7625 7.38938 43.1878 7.55272 43.4836C7.71297 43.7795 8.02731 44.328 8.25228 44.7009C8.47417 45.0738 8.80392 45.6008 8.97959 45.872C9.15833 46.1432 9.46651 46.5993 9.66991 46.889C9.87022 47.1756 10.237 47.6841 10.4835 48.0138C10.73 48.3436 11.1522 48.8922 11.4234 49.2312C11.6946 49.5701 12.1631 50.131 12.462 50.4793C12.7609 50.8275 13.1616 51.2836 13.3526 51.4963C13.5437 51.7089 14.0553 52.2544 14.4898 52.7105C14.9243 53.1666 15.6609 53.9031 16.1262 54.3469C16.5916 54.7907 17.1463 55.3146 17.359 55.5057C17.5716 55.6998 17.9815 56.0635 18.2681 56.3162C18.5578 56.5689 19.0817 57.0188 19.4392 57.3178C19.7936 57.6136 20.3976 58.1067 20.7797 58.4118C21.1619 58.7138 21.9015 59.2839 22.4285 59.6784C22.9524 60.0729 23.7013 60.6183 24.0927 60.8957C24.481 61.17 25.2853 61.7185 25.8801 62.113C26.4718 62.5075 27.2916 63.0375 27.6983 63.2903C28.1051 63.543 28.7646 63.9467 29.1622 64.184C29.5597 64.4213 30.1915 64.788 30.5644 65.0006C30.9373 65.2133 31.5598 65.5615 31.9512 65.7711C32.3395 65.9837 33.0699 66.369 33.5691 66.6278C34.0684 66.8867 34.8727 67.2904 35.3566 67.5215C35.8404 67.7558 36.4968 68.067 36.8204 68.2149C37.1409 68.3629 37.7049 68.6156 38.0686 68.7758C38.4322 68.9361 39.0979 69.2227 39.5478 69.4076C39.9977 69.5956 40.5925 69.836 40.873 69.9469C41.1534 70.0579 41.7359 70.2797 42.1673 70.44C42.5988 70.6033 43.3261 70.8653 43.7853 71.0255C44.2414 71.1827 44.9841 71.4323 45.434 71.5741C45.884 71.7159 46.4787 71.9008 46.7592 71.9871C47.0396 72.0703 47.6005 72.2305 48.0073 72.3445C48.4141 72.4586 49.1198 72.6466 49.579 72.7606C50.0351 72.8777 50.784 73.0564 51.2432 73.1581C51.6993 73.2598 52.4297 73.4108 52.8611 73.4971C53.2926 73.5803 53.9798 73.7067 54.3866 73.7745C54.7934 73.8423 55.4159 73.9409 55.7734 73.9902C56.1278 74.0426 56.7195 74.1196 57.0832 74.1628C57.4468 74.2029 58.0508 74.2676 58.4237 74.3015C58.7966 74.3354 59.4407 74.3847 59.8568 74.4093C60.2728 74.4371 61.1604 74.4648 61.8291 74.4771C62.5842 74.4864 63.3638 74.4802 63.8785 74.4586C64.3346 74.4402 64.9725 74.4032 65.2961 74.3754C65.6166 74.3508 66.0696 74.3107 66.2977 74.283C66.5258 74.2583 66.9634 74.2029 67.2685 74.1597C67.5736 74.1166 68.0512 74.0395 68.3317 73.9902C68.6121 73.9378 69.0836 73.8423 69.3795 73.7776C69.6753 73.7098 70.1468 73.5927 70.4273 73.5156C70.7077 73.4386 71.17 73.2968 71.4597 73.2013C71.7463 73.1057 72.2271 72.9332 72.5229 72.8161C72.8188 72.6989 73.3673 72.4524 73.7402 72.2675C74.1131 72.0857 74.6062 71.8206 74.8342 71.682C75.0623 71.5433 75.4105 71.3183 75.6047 71.1827C75.7988 71.044 76.0916 70.8252 76.2519 70.6989C76.4121 70.5694 76.6895 70.3321 76.8682 70.1688C77.047 70.0055 77.3028 69.7497 77.4414 69.5987C77.577 69.4477 77.7773 69.2134 77.8883 69.0778C77.9992 68.9422 78.1749 68.7142 78.2766 68.5694C78.3814 68.4245 78.5447 68.1749 78.6402 68.0146C78.7389 67.8544 78.9084 67.54 79.0193 67.3212C79.1303 67.0993 79.2782 66.7665 79.3521 66.5816C79.423 66.3936 79.534 66.0762 79.5956 65.8728C79.6572 65.6694 79.7466 65.3212 79.7959 65.1023C79.8452 64.8805 79.9069 64.5569 79.9315 64.3781C79.9562 64.1994 79.9962 63.8943 80.0147 63.7001C80.0363 63.506 80.0517 63.0191 80.0517 62.6215C80.0517 62.224 80.0363 61.7093 80.0147 61.4812C79.9932 61.2532 79.95 60.8711 79.9161 60.6338C79.8822 60.3965 79.8206 60.0205 79.7774 59.8017C79.7343 59.5798 79.6449 59.1792 79.5771 58.908C79.5093 58.6368 79.4045 58.2485 79.3429 58.0451C79.2843 57.8417 79.158 57.4534 79.0655 57.1822C78.9731 56.911 78.8005 56.4518 78.6865 56.1652C78.5724 55.8755 78.3906 55.4471 78.2858 55.2098C78.1811 54.9725 77.9407 54.4671 77.7496 54.085C77.5585 53.7028 77.2935 53.1974 77.161 52.9601C77.0285 52.7228 76.748 52.2359 76.5323 51.8815C76.3197 51.524 75.9005 50.8676 75.6016 50.4176C75.3027 49.9677 74.8743 49.3513 74.6493 49.0462C74.4244 48.7411 74.0823 48.282 73.885 48.0293C73.6909 47.7735 73.3488 47.3451 73.1269 47.0739C72.905 46.8027 72.5568 46.3867 72.3534 46.1494C72.15 45.9121 71.7833 45.496 71.5398 45.2248C71.2964 44.9536 70.7478 44.365 70.3194 43.9151C69.8911 43.4651 69.1607 42.7347 68.6953 42.2941C68.2331 41.8503 67.6814 41.3295 67.4688 41.1384C67.2561 40.9442 66.8463 40.5806 66.5597 40.3279C66.27 40.0752 65.7522 39.6314 65.404 39.3417C65.0557 39.0489 64.5288 38.6175 64.2329 38.3802C63.9371 38.1429 63.447 37.7577 63.145 37.5265C62.8461 37.2954 62.4147 36.9687 62.1897 36.8023C61.9678 36.6359 61.5826 36.3555 61.336 36.1767C61.0895 35.998 60.6395 35.6805 60.3344 35.4679C60.0294 35.2553 59.4253 34.8454 58.9939 34.5557C58.5624 34.2691 57.8598 33.813 57.4376 33.5449C57.0123 33.2767 56.2911 32.833 55.835 32.5587C55.3759 32.2844 54.6979 31.8869 54.325 31.6742C53.9521 31.4616 53.3542 31.1287 52.9998 30.9346C52.6423 30.7404 51.9859 30.3891 51.536 30.1549C51.086 29.9176 50.3032 29.5231 49.7947 29.2735C49.2862 29.027 48.5035 28.651 48.0535 28.4445C47.6036 28.238 46.8763 27.9114 46.4356 27.7203C45.9949 27.5292 45.3231 27.2457 44.9409 27.0885C44.5588 26.9314 43.9702 26.6941 43.6312 26.5646C43.2922 26.4321 42.6666 26.1979 42.2444 26.0407C41.8191 25.8835 40.8976 25.5661 40.195 25.3288C39.4923 25.0946 38.5616 24.7988 38.1302 24.6693C37.6987 24.5399 36.9684 24.3334 36.5123 24.2071C36.0531 24.0807 35.3751 23.902 35.0022 23.8095C34.6293 23.7171 33.9143 23.5506 33.4151 23.4397C32.9158 23.3287 32.1793 23.1777 31.7817 23.1007C31.3842 23.0236 30.7647 22.9127 30.4103 22.8542C30.0528 22.7925 29.4241 22.697 29.0081 22.6384C28.5921 22.5768 27.948 22.4936 27.5751 22.4535C27.2022 22.4104 26.6536 22.3549 26.3578 22.3272C26.0619 22.3025 25.5195 22.2594 25.1559 22.2316C24.7029 22.1977 23.9293 22.1823 22.7213 22.1762C21.7474 22.17 20.8445 22.17 20.7181 22.1762ZM97.9476 38.6329C97.923 38.6391 97.4145 38.7346 96.8228 38.8455C96.228 38.9596 95.6332 39.0767 95.4976 39.1106C95.362 39.1445 95.134 39.2246 94.9891 39.2831C94.8443 39.3448 94.6162 39.4619 94.4806 39.542C94.345 39.6221 94.117 39.7824 93.9752 39.8995C93.8304 40.0135 93.6362 40.1954 93.5438 40.3032C93.4482 40.4111 93.2972 40.6052 93.2078 40.7347C93.1154 40.8641 92.986 41.0829 92.9182 41.2185C92.8504 41.3541 92.7487 41.6037 92.6901 41.7732C92.6346 41.9427 92.5637 42.2139 92.536 42.3742C92.499 42.593 92.4898 42.7902 92.499 43.16C92.5144 43.6439 92.5237 43.6963 93.0106 46.2264C93.2849 47.6409 93.5037 48.8028 93.5006 48.8089C93.4975 48.812 93.3681 48.7627 93.2171 48.698C93.063 48.6302 92.8072 48.5347 92.647 48.4823C92.4867 48.433 92.2217 48.3621 92.0614 48.3282C91.9012 48.2912 91.633 48.2511 91.4666 48.2327C91.3033 48.2142 91.0074 48.1988 90.8133 48.1988C90.6191 48.1988 90.2956 48.2203 90.0952 48.245C89.898 48.2727 89.5898 48.3282 89.4111 48.3713C89.2323 48.4145 88.955 48.5008 88.7947 48.5593C88.6345 48.621 88.3818 48.7288 88.2308 48.8028C88.0828 48.8767 87.8702 48.9969 87.7531 49.0647C87.6391 49.1356 87.448 49.2651 87.3309 49.3544C87.2107 49.4407 87.0135 49.601 86.8902 49.7119C86.7669 49.8198 86.545 50.0478 86.3971 50.2173C86.2523 50.3868 86.0365 50.6703 85.9194 50.8491C85.8023 51.0278 85.6328 51.3237 85.5404 51.5117C85.451 51.6966 85.3216 52.0171 85.2538 52.2205C85.189 52.4239 85.1028 52.7413 85.0689 52.9293C85.0319 53.1142 84.9887 53.447 84.9702 53.6689C84.9456 53.9555 84.9487 54.1897 84.9733 54.4856C84.9918 54.7136 85.0319 55.0342 85.0658 55.1944C85.0997 55.3547 85.1613 55.6074 85.2044 55.7553C85.2476 55.9063 85.3493 56.1837 85.4325 56.3716C85.5126 56.5627 85.6544 56.8432 85.7407 56.9972C85.83 57.1483 85.9811 57.3856 86.0766 57.5181C86.1721 57.6506 86.3848 57.9002 86.545 58.0697C86.7053 58.2392 86.9426 58.4642 87.0689 58.569C87.1953 58.6768 87.4387 58.8556 87.6082 58.9696C87.7777 59.0836 88.0674 59.25 88.2554 59.3394C88.4403 59.4319 88.7331 59.5521 88.9026 59.6106C89.0721 59.6692 89.371 59.7524 89.5652 59.7955C89.7593 59.8387 90.0552 59.891 90.2185 59.9065C90.3849 59.9249 90.6592 59.9404 90.8287 59.9404C90.9982 59.9404 91.2725 59.9249 91.4358 59.9065C91.6022 59.891 91.8765 59.8479 92.046 59.814C92.2155 59.777 92.499 59.7031 92.6778 59.6445C92.8565 59.5859 93.1739 59.4534 93.3866 59.3517C93.5992 59.25 93.9043 59.0775 94.0646 58.9727C94.2248 58.8679 94.4868 58.6707 94.647 58.5351C94.8073 58.4025 95.0631 58.1529 95.2141 57.9834C95.3651 57.8139 95.5901 57.5212 95.7133 57.3362C95.8397 57.1483 96.0246 56.8247 96.1263 56.612C96.228 56.3994 96.3513 56.1097 96.4006 55.9649C96.4499 55.82 96.5269 55.5426 96.5701 55.3485C96.6132 55.1543 96.6656 54.8585 96.681 54.6921C96.6995 54.5287 96.7149 54.2452 96.7149 54.0603C96.7149 53.8785 96.6995 53.6042 96.6841 53.4532C96.6656 53.2991 96.2218 50.9292 95.6948 48.1833C94.7857 43.4405 94.7364 43.1785 94.7518 42.9289C94.7611 42.7686 94.798 42.5899 94.8412 42.4666C94.8812 42.3557 94.9614 42.1862 95.0199 42.0845C95.0785 41.9859 95.2172 41.8225 95.3281 41.7208C95.4391 41.6191 95.624 41.4897 95.7442 41.4312C95.9198 41.3418 96.0955 41.2956 96.7149 41.1754C97.131 41.0922 97.6949 40.9843 97.9692 40.9288C98.2743 40.8703 98.5301 40.8025 98.6164 40.7593C98.6996 40.7193 98.829 40.6176 98.9091 40.5344C98.9893 40.4542 99.094 40.3032 99.1403 40.2015C99.2112 40.0443 99.2266 39.9765 99.2266 39.7547C99.2266 39.5266 99.2142 39.4681 99.131 39.2924C99.0817 39.1814 98.98 39.0335 98.9091 38.9596C98.8383 38.8887 98.715 38.7962 98.6318 38.7562C98.5517 38.7161 98.413 38.6668 98.3236 38.6483C98.2373 38.6298 98.1264 38.6175 98.0771 38.6175C98.0308 38.6206 97.9723 38.6267 97.9476 38.6329ZM39.6557 72.7421C39.6002 72.8284 39.4738 73.0503 39.3721 73.2383C39.2705 73.4232 39.1102 73.7498 39.0147 73.9625C38.9222 74.1751 38.8051 74.471 38.7527 74.6251C38.7003 74.7761 38.6233 75.0411 38.5801 75.2106C38.537 75.3801 38.4784 75.679 38.4507 75.8732C38.4137 76.1351 38.4045 76.3416 38.4168 76.6744C38.4291 77.0104 38.4538 77.1953 38.5123 77.4295C38.5555 77.599 38.6572 77.8702 38.7342 78.0304C38.8113 78.1907 38.9345 78.4064 39.0054 78.5081C39.0794 78.6098 39.2088 78.7762 39.2982 78.8779C39.3845 78.9796 39.5725 79.1645 39.7111 79.2878C39.8498 79.4142 40.1426 79.636 40.3645 79.7809C40.5833 79.9288 40.9531 80.1415 41.1812 80.2555C41.4092 80.3664 41.7297 80.5113 41.89 80.5729C42.0502 80.6376 42.3492 80.7424 42.5525 80.8102C42.7559 80.8749 43.172 80.992 43.4771 81.066C43.7822 81.143 44.2753 81.2447 44.5711 81.2971C44.867 81.3464 45.3385 81.4173 45.6189 81.4481C45.8994 81.482 46.3216 81.5252 46.5589 81.5406C46.7962 81.5591 47.1136 81.5806 47.2677 81.5899L47.545 81.6084C48.0073 80.4466 48.2539 79.8548 48.3925 79.5405C48.5312 79.2262 48.8579 78.5389 49.1168 78.015C49.3787 77.488 49.7362 76.7946 49.9149 76.4741C50.0937 76.1505 50.2354 75.8855 50.2324 75.8824C50.2293 75.8763 49.8102 75.7715 49.3017 75.6451C48.7932 75.5188 47.995 75.3123 47.5296 75.1829C47.0643 75.0565 46.3062 74.8408 45.8501 74.7021C45.3909 74.5634 44.4633 74.2676 43.7853 74.0426C43.1073 73.8176 42.1981 73.5033 41.7667 73.3461C41.3352 73.1889 40.7035 72.9516 40.3676 72.8191L39.7543 72.5818L39.6557 72.7421ZM77.916 73.041C77.7712 73.1612 77.4692 73.3831 77.2442 73.5403C77.0223 73.6974 76.6124 73.9625 76.3351 74.1289C76.0608 74.2953 75.4753 74.6097 75.0346 74.8285C74.5939 75.0442 73.9898 75.3185 73.694 75.4386C73.3981 75.5558 72.905 75.7376 72.5999 75.8424C72.2949 75.9471 71.7802 76.1074 71.4597 76.1999C71.1361 76.2923 70.6738 76.4156 70.4273 76.4741C70.1807 76.5327 69.7709 76.6221 69.5182 76.6744C69.2624 76.7299 68.7785 76.8193 68.4395 76.8748C68.1005 76.9333 67.5458 77.0165 67.2068 77.0597C66.8678 77.1028 66.2854 77.1645 65.9125 77.1984C65.5396 77.2323 64.9571 77.2754 64.6181 77.297C64.2483 77.3216 63.3484 77.337 62.3838 77.337C61.447 77.337 60.4855 77.3216 60.1033 77.297C59.7397 77.2754 59.1757 77.2384 58.8552 77.2138C58.5316 77.1891 58.0539 77.146 57.792 77.1213C57.53 77.0967 57.0154 77.0412 56.6517 76.998C56.2881 76.9549 55.6964 76.8778 55.342 76.8285C54.9845 76.7761 54.3619 76.6806 53.9552 76.6128C53.5484 76.545 53.2124 76.4926 53.2094 76.4988C53.2094 76.5019 53.1262 76.6375 53.0306 76.8008C52.932 76.9611 52.6947 77.3771 52.5006 77.7253C52.3064 78.0705 51.9766 78.6961 51.7671 79.1121C51.5606 79.5251 51.2832 80.0952 51.1569 80.3757C51.0305 80.653 50.8364 81.0968 50.7254 81.3618C50.6145 81.6238 50.445 82.046 50.3495 82.3018C50.2508 82.5545 50.0844 83.026 49.9735 83.3496C49.8656 83.6701 49.693 84.2187 49.5944 84.5669C49.4958 84.9121 49.351 85.4822 49.2739 85.8304C49.1969 86.1756 49.0983 86.6687 49.0582 86.9245C49.0151 87.1772 48.9565 87.5871 48.9257 87.8336C48.8825 88.1849 48.8702 88.4993 48.8702 89.3129C48.8702 90.2312 48.8764 90.3915 48.938 90.7767C48.9781 91.014 49.0551 91.3807 49.1137 91.5934C49.1722 91.8029 49.2616 92.0834 49.314 92.2159C49.3664 92.3484 49.4588 92.5549 49.5205 92.6782C49.5821 92.8014 49.6992 93.0017 49.7824 93.125C49.8656 93.2483 50.0259 93.4486 50.1399 93.5688C50.2539 93.689 50.4265 93.8462 50.519 93.917C50.6114 93.9879 50.7778 94.0989 50.8888 94.1636C50.9997 94.2283 51.2 94.3269 51.3356 94.3824C51.4712 94.4379 51.7209 94.518 51.8904 94.5611C52.0599 94.6043 52.3033 94.6567 52.4297 94.6782C52.5868 94.706 52.9258 94.7183 53.4929 94.7183C54.1832 94.7183 54.3958 94.706 54.741 94.6505C54.9691 94.6166 55.3235 94.5488 55.5269 94.5057C55.7303 94.4594 56.097 94.367 56.3435 94.2961C56.5901 94.2283 56.9691 94.1112 57.191 94.0372C57.4098 93.9602 57.7858 93.8215 58.0231 93.729C58.2604 93.6335 58.6333 93.4763 58.8552 93.3808C59.074 93.2822 59.5116 93.0726 59.826 92.9185C60.1403 92.7614 60.5964 92.521 60.8429 92.3854C61.0895 92.2467 61.5179 91.9971 61.7983 91.8276C62.0787 91.6612 62.5965 91.3283 62.954 91.091C63.3084 90.8537 63.8446 90.4808 64.1405 90.2651C64.4363 90.0494 64.9232 89.6827 65.2191 89.4484C65.5149 89.2142 65.9587 88.8567 66.2022 88.6503C66.4487 88.4469 66.8555 88.0925 67.1113 87.8675C67.3671 87.6394 67.9033 87.1464 68.3009 86.7704C68.6984 86.3913 69.3456 85.7472 69.737 85.3312C70.1284 84.9182 70.6492 84.3604 70.8896 84.0892C71.1299 83.818 71.5306 83.3527 71.7802 83.0568C72.0298 82.7579 72.4058 82.3018 72.6154 82.0398C72.8249 81.7748 73.1762 81.3187 73.4012 81.0228C73.6231 80.7239 73.9344 80.3017 74.0946 80.0829C74.2518 79.861 74.5507 79.4326 74.7572 79.1276C74.9637 78.8225 75.2811 78.3417 75.4568 78.0643C75.6355 77.7839 75.9252 77.3124 76.1039 77.0165C76.2827 76.7176 76.5724 76.2122 76.7511 75.8917C76.9299 75.5681 77.2072 75.0473 77.3706 74.736C77.5308 74.4217 77.7958 73.8793 77.9592 73.5341C78.1194 73.1859 78.2519 72.8839 78.255 72.8623C78.255 72.8407 78.2365 72.8253 78.215 72.8253C78.1934 72.8284 78.0609 72.9239 77.916 73.041Z" fill="url(#paint0_linear_137_719)"/>
<defs>
<linearGradient id="paint0_linear_137_719" x1="51.9998" y1="9.28149" x2="51.9998" y2="94.7183" gradientUnits="userSpaceOnUse">
<stop stop-color="#FEA500"/>
<stop offset="1" stop-color="#FF5900"/>
</linearGradient>
</defs>
</svg>
