<svg width="77" height="77" viewBox="0 0 77 77" fill="none" xmlns="http://www.w3.org/2000/svg">
<path d="M17.1406 62.0647H21.4101V55.8828H3.7085V62.0647H17.1406ZM56.5902 29.4833H74.2918V23.3015H56.5873V29.4833H56.5902ZM68.6234 32.3261H62.2613V69.5435C62.2613 70.4069 62.6212 71.1929 63.1959 71.7638C63.7734 72.3346 64.5687 72.6874 65.4423 72.6874C66.3159 72.6874 67.1112 72.3317 67.6887 71.7638C68.2663 71.1929 68.6233 70.4069 68.6233 69.5435L68.6234 32.3261ZM62.2613 20.4588H68.6234V8.45938C68.6234 7.59592 68.2635 6.80993 67.6888 6.23912C67.1112 5.66827 66.3159 5.31544 65.4424 5.31544C64.5687 5.31544 63.7735 5.67115 63.1669 6.27069C62.5951 6.86449 62.2613 7.62757 62.2613 8.45946V20.4588ZM30.149 44.291H47.8505V38.1092H30.149V44.291ZM42.1821 47.1338H35.82V69.5436C35.82 70.407 36.177 71.1959 36.7546 71.7638C37.3322 72.3318 38.1304 72.6875 39.0039 72.6875C39.8776 72.6875 40.6728 72.3318 41.2503 71.7638C41.8279 71.193 42.1849 70.4069 42.1849 69.5436V47.1338H42.1821ZM35.82 35.2665H42.1821V8.45652C42.1821 7.59306 41.8222 6.80707 41.2475 6.23625C40.6699 5.6654 39.8746 5.31257 39.0011 5.31257C38.1246 5.31257 37.3293 5.66541 36.7518 6.23625C36.1771 6.80424 35.8172 7.59313 35.8172 8.45652V35.2665H35.82ZM9.37911 64.9046V69.5431C9.37911 70.4066 9.73901 71.1926 10.3137 71.7634C10.8912 72.3342 11.6865 72.6871 12.5601 72.6871C13.4337 72.6871 14.229 72.3314 14.8065 71.7634C15.3841 71.1925 15.7411 70.4065 15.7411 69.5431V64.9046H9.37911ZM9.37911 53.0373H15.7412V8.45652C15.7412 7.62177 15.4074 6.86156 14.8386 6.26776C14.2291 5.66822 13.4338 5.3125 12.5602 5.3125C11.6865 5.3125 10.8913 5.66821 10.3137 6.23618C9.73907 6.80703 9.37918 7.59306 9.37918 8.45644L9.37911 53.0373Z" fill="url(#paint0_linear_137_981)" stroke="url(#paint1_linear_137_981)" stroke-width="2.23188"/>
<defs>
<linearGradient id="paint0_linear_137_981" x1="39.0002" y1="5.3125" x2="39.0002" y2="72.6875" gradientUnits="userSpaceOnUse">
<stop stop-color="#FEA500"/>
<stop offset="1" stop-color="#FF5900"/>
</linearGradient>
<linearGradient id="paint1_linear_137_981" x1="39.0002" y1="5.3125" x2="39.0002" y2="72.6875" gradientUnits="userSpaceOnUse">
<stop stop-color="#FEA500"/>
<stop offset="1" stop-color="#FF5900"/>
</linearGradient>
</defs>
</svg>
