<svg width="138" height="140" viewBox="0 0 138 140" fill="none" xmlns="http://www.w3.org/2000/svg">
<path d="M68.9931 16.1746C73.9047 16.1746 77.8953 19.9876 77.8953 24.6807C77.8962 30.7826 81.6363 37.144 87.7792 42.3521C94.0759 47.6898 100.954 50.1736 104.575 50.1736C109.484 50.1758 113.463 53.9767 113.464 58.6671C113.464 63.3588 109.485 67.171 104.575 67.1732C95.8214 67.1732 85.8422 62.7855 77.8953 56.6261V98.3326C77.892 112.407 65.9455 123.823 51.2152 123.826C36.4819 123.826 24.5384 112.409 24.5352 98.3326C24.5352 84.2533 36.4798 72.827 51.2152 72.827C54.3319 72.8276 57.3239 73.3461 60.1041 74.2848V24.6807C60.1041 19.9887 64.0831 16.1764 68.9931 16.1746Z" fill="url(#paint0_linear_137_700)"/>
<defs>
<linearGradient id="paint0_linear_137_700" x1="68.9997" y1="16.1746" x2="68.9997" y2="123.826" gradientUnits="userSpaceOnUse">
<stop stop-color="#FEA500"/>
<stop offset="1" stop-color="#FF5900"/>
</linearGradient>
</defs>
</svg>
