<svg width="24" height="24" viewBox="0 0 24 24" fill="none" xmlns="http://www.w3.org/2000/svg">
<g clip-path="url(#clip0_6_731)">
<path d="M18 18C16.8954 18 16 18.8954 16 20C16 21.1046 16.8954 22 18 22C19.1046 22 20 21.1046 20 20C20 18.8954 19.1046 18 18 18ZM18 18H8.29395C7.83288 18 7.60193 18 7.41211 17.918C7.24466 17.8456 7.09938 17.7291 6.99354 17.5805C6.8749 17.414 6.82719 17.1913 6.73274 16.7505L4.27148 5.26465C4.17484 4.81363 4.12587 4.58838 4.00586 4.41992C3.90002 4.27135 3.75477 4.15441 3.58732 4.08205C3.39746 4 3.16779 4 2.70653 4H2M5 7H20.8732C21.595 7 21.9555 7 22.1978 7.15036C22.41 7.28206 22.5653 7.48862 22.633 7.729C22.7104 8.00343 22.611 8.34996 22.411 9.04346L21.0264 13.8435C20.9068 14.2581 20.8469 14.465 20.7256 14.6189C20.6185 14.7547 20.4772 14.861 20.317 14.9263C20.1361 15 19.9211 15 19.4921 15H6.73047M7 22C5.89543 22 5 21.1046 5 20C5 18.8954 5.89543 18 7 18C8.10457 18 9 18.8954 9 20C9 21.1046 8.10457 22 7 22Z" stroke="white" stroke-width="2" stroke-linecap="round" stroke-linejoin="round"/>
<circle cx="16" cy="6.5" r="4.75" fill="black" stroke="white" stroke-width="1.5"/>
<ellipse cx="16.3324" cy="5.55614" rx="1.15302" ry="2.17721" transform="rotate(-32.1189 16.3324 5.55614)" fill="url(#paint0_linear_6_731)" fill-opacity="0.6"/>
<ellipse cx="16.5065" cy="7.20867" rx="0.700657" ry="1.4188" transform="rotate(-110.979 16.5065 7.20867)" fill="url(#paint1_linear_6_731)" fill-opacity="0.6"/>
<ellipse cx="16.8075" cy="7.60273" rx="0.700657" ry="1.41879" transform="rotate(-140.158 16.8075 7.60273)" fill="url(#paint2_linear_6_731)" fill-opacity="0.6"/>
<ellipse cx="15.548" cy="5.98701" rx="1.31438" ry="2.50095" transform="rotate(-62.2571 15.548 5.98701)" fill="url(#paint3_linear_6_731)" fill-opacity="0.6"/>
<path d="M18.6934 5.43879C18.7283 5.43213 18.762 5.45495 18.7686 5.48973C18.7753 5.52451 18.7525 5.55813 18.7176 5.56478L18.5981 5.58762C18.5705 5.59289 18.5475 5.60902 18.5329 5.63052C18.518 5.65241 18.5115 5.67968 18.5168 5.70724L18.6213 6.25192C18.6381 6.34224 18.6169 6.43013 18.5693 6.5001C18.5215 6.57064 18.4467 6.62286 18.3563 6.64013C18.2659 6.6574 18.1769 6.63649 18.1063 6.58858L18.102 6.58533C18.0335 6.53736 17.9829 6.46386 17.966 6.37576C17.9487 6.28553 17.9697 6.19666 18.0177 6.12626C18.0655 6.0559 18.1405 6.00348 18.2309 5.9862C18.3067 5.97172 18.3816 5.9841 18.4455 6.0168L18.3907 5.73117C18.3788 5.66932 18.3935 5.60786 18.4267 5.55899C18.4602 5.50973 18.512 5.4733 18.5741 5.46143L18.6936 5.4386L18.6934 5.43879Z" fill="url(#paint4_linear_6_731)"/>
</g>
<defs>
<linearGradient id="paint0_linear_6_731" x1="16.3324" y1="3.37893" x2="16.3324" y2="7.73335" gradientUnits="userSpaceOnUse">
<stop stop-color="#FEA500"/>
<stop offset="1" stop-color="#FF5900"/>
</linearGradient>
<linearGradient id="paint1_linear_6_731" x1="16.5065" y1="5.78987" x2="16.5065" y2="8.62746" gradientUnits="userSpaceOnUse">
<stop stop-color="#FEA500"/>
<stop offset="1" stop-color="#FF5900"/>
</linearGradient>
<linearGradient id="paint2_linear_6_731" x1="16.8075" y1="6.18393" x2="16.8075" y2="9.02152" gradientUnits="userSpaceOnUse">
<stop stop-color="#FEA500"/>
<stop offset="1" stop-color="#FF5900"/>
</linearGradient>
<linearGradient id="paint3_linear_6_731" x1="15.548" y1="3.48605" x2="15.548" y2="8.48796" gradientUnits="userSpaceOnUse">
<stop stop-color="#FEA500"/>
<stop offset="1" stop-color="#FF5900"/>
</linearGradient>
<linearGradient id="paint4_linear_6_731" x1="18.2874" y1="5.5162" x2="18.4971" y2="6.61323" gradientUnits="userSpaceOnUse">
<stop stop-color="#FEA500"/>
<stop offset="1" stop-color="#FF5900"/>
</linearGradient>
<clipPath id="clip0_6_731">
<rect width="24" height="24" fill="white"/>
</clipPath>
</defs>
</svg>
