<svg width="113" height="113" viewBox="0 0 113 113" fill="none" xmlns="http://www.w3.org/2000/svg">
<g clip-path="url(#clip0_137_696)">
<path d="M56.4999 8.08545C69.3402 8.08545 81.6546 13.1862 90.7341 22.2657C99.8135 31.3452 104.914 43.6596 104.914 56.4999C104.914 69.3402 99.8135 81.6546 90.7341 90.7341C81.6546 99.8135 69.3402 104.914 56.4999 104.914C43.6596 104.914 31.3452 99.8135 22.2657 90.7341C13.1862 81.6546 8.08545 69.3402 8.08545 56.4999C8.08545 43.6596 13.1862 31.3452 22.2657 22.2657C31.3452 13.1862 43.6596 8.08545 56.4999 8.08545ZM17.1632 56.4999C17.1632 66.9326 21.3076 76.9381 28.6846 84.3152C36.0617 91.6922 46.0671 95.8366 56.4999 95.8366C66.9326 95.8366 76.9381 91.6922 84.3152 84.3152C91.6922 76.9381 95.8366 66.9326 95.8366 56.4999C95.8366 46.0671 91.6922 36.0617 84.3152 28.6846C76.9381 21.3076 66.9326 17.1632 56.4999 17.1632C46.0671 17.1632 36.0617 21.3076 28.6846 28.6846C21.3076 36.0617 17.1632 46.0671 17.1632 56.4999ZM46.6899 39.7182L72.4948 55.2048C72.7178 55.3395 72.9023 55.5295 73.0303 55.7564C73.1583 55.9833 73.2256 56.2394 73.2256 56.4999C73.2256 56.7604 73.1583 57.0165 73.0303 57.2434C72.9023 57.4703 72.7178 57.6603 72.4948 57.795L46.6899 73.2815C46.4604 73.4198 46.1984 73.4946 45.9305 73.4984C45.6627 73.5021 45.3986 73.4347 45.1653 73.303C44.9321 73.1713 44.738 72.98 44.6028 72.7487C44.4677 72.5174 44.3964 72.2543 44.3963 71.9865V41.0194C44.3954 40.751 44.4659 40.4872 44.6006 40.255C44.7352 40.0228 44.9293 39.8307 45.1627 39.6983C45.3962 39.5658 45.6606 39.4979 45.929 39.5014C46.1974 39.5049 46.46 39.5797 46.6899 39.7182Z" fill="url(#paint0_linear_137_696)"/>
</g>
<defs>
<linearGradient id="paint0_linear_137_696" x1="56.4999" y1="8.08545" x2="56.4999" y2="104.914" gradientUnits="userSpaceOnUse">
<stop stop-color="#FEA500"/>
<stop offset="1" stop-color="#FF5900"/>
</linearGradient>
<clipPath id="clip0_137_696">
<rect width="96.8289" height="96.8289" fill="white" transform="translate(8.08545 8.08545)"/>
</clipPath>
</defs>
</svg>
