<svg width="23" height="16" viewBox="0 0 23 16" fill="none" xmlns="http://www.w3.org/2000/svg">
<path d="M9.05659 11.3207L14.9321 7.92452L9.05659 4.52829V11.3207ZM22.1434 2.4566C22.2905 2.98867 22.3924 3.70188 22.4603 4.60754C22.5396 5.5132 22.5735 6.29433 22.5735 6.97357L22.6415 7.92452C22.6415 10.4038 22.4603 12.2264 22.1434 13.3924C21.8603 14.4113 21.2037 15.0679 20.1849 15.3509C19.6528 15.4981 18.6792 15.6 17.1849 15.6679C15.7132 15.7471 14.366 15.7811 13.1207 15.7811L11.3207 15.849C6.57735 15.849 3.62264 15.6679 2.4566 15.3509C1.43773 15.0679 0.781131 14.4113 0.498112 13.3924C0.350943 12.8604 0.249056 12.1472 0.181132 11.2415C0.101887 10.3358 0.0679244 9.5547 0.0679244 8.87546L0 7.92452C0 5.44527 0.181132 3.62264 0.498112 2.4566C0.781131 1.43773 1.43773 0.781131 2.4566 0.498112C2.98867 0.350943 3.96226 0.249056 5.45659 0.181132C6.92829 0.101886 8.27546 0.0679244 9.52074 0.0679244L11.3207 0C16.0641 0 19.0188 0.181132 20.1849 0.498112C21.2037 0.781131 21.8603 1.43773 22.1434 2.4566Z" fill="white"/>
</svg>
