<svg width="96" height="100" viewBox="0 0 96 100" fill="none" xmlns="http://www.w3.org/2000/svg">
<ellipse cx="57.746" cy="39.7058" rx="16.318" ry="30.8129" transform="rotate(-32.1189 57.746 39.7058)" fill="url(#paint0_linear_123_373)" fill-opacity="0.6"/>
<ellipse cx="60.2206" cy="63.0915" rx="9.91604" ry="20.0795" transform="rotate(-110.979 60.2206 63.0915)" fill="url(#paint1_linear_123_373)" fill-opacity="0.6"/>
<ellipse cx="64.4728" cy="68.6702" rx="9.91603" ry="20.0795" transform="rotate(-140.158 64.4728 68.6702)" fill="url(#paint2_linear_123_373)" fill-opacity="0.6"/>
<ellipse cx="46.6492" cy="45.8041" rx="18.6018" ry="35.3947" transform="rotate(-62.2571 46.6492 45.8041)" fill="url(#paint3_linear_123_373)" fill-opacity="0.6"/>
<path d="M91.1727 38.0417C91.6659 37.9475 92.1425 38.2704 92.237 38.7626C92.3314 39.2548 92.0079 39.7306 91.5147 39.8248L89.8236 40.148C89.4329 40.2226 89.1077 40.4508 88.9008 40.7551C88.6901 41.065 88.5978 41.4509 88.6726 41.8409L90.151 49.5495C90.3889 50.8278 90.0897 52.0716 89.4164 53.062C88.7398 54.0602 87.6806 54.7992 86.4013 55.0437C85.1219 55.2881 83.8619 54.9922 82.8637 54.314L82.8019 54.2681C81.8325 53.5893 81.117 52.549 80.8779 51.3021C80.633 50.0252 80.9295 48.7674 81.6089 47.7711C82.2859 46.7753 83.347 46.0334 84.6263 45.789C85.6987 45.5841 86.7595 45.7593 87.6633 46.222L86.8881 42.1797C86.7202 41.3043 86.9271 40.4344 87.3973 39.7428C87.8713 39.0457 88.6043 38.5302 89.4836 38.3621L91.1746 38.039L91.1727 38.0417Z" fill="url(#paint4_linear_123_373)"/>
<defs>
<linearGradient id="paint0_linear_123_373" x1="57.746" y1="8.89293" x2="57.746" y2="70.5187" gradientUnits="userSpaceOnUse">
<stop stop-color="#FEA500"/>
<stop offset="1" stop-color="#FF5900"/>
</linearGradient>
<linearGradient id="paint1_linear_123_373" x1="60.2206" y1="43.0121" x2="60.2206" y2="83.171" gradientUnits="userSpaceOnUse">
<stop stop-color="#FEA500"/>
<stop offset="1" stop-color="#FF5900"/>
</linearGradient>
<linearGradient id="paint2_linear_123_373" x1="64.4728" y1="48.5907" x2="64.4728" y2="88.7496" gradientUnits="userSpaceOnUse">
<stop stop-color="#FEA500"/>
<stop offset="1" stop-color="#FF5900"/>
</linearGradient>
<linearGradient id="paint3_linear_123_373" x1="46.6492" y1="10.4094" x2="46.6492" y2="81.1988" gradientUnits="userSpaceOnUse">
<stop stop-color="#FEA500"/>
<stop offset="1" stop-color="#FF5900"/>
</linearGradient>
<linearGradient id="paint4_linear_123_373" x1="85.4268" y1="39.1373" x2="88.3934" y2="54.663" gradientUnits="userSpaceOnUse">
<stop stop-color="#FEA500"/>
<stop offset="1" stop-color="#FF5900"/>
</linearGradient>
</defs>
</svg>
