<svg width="176" height="100" viewBox="0 0 176 100" fill="none" xmlns="http://www.w3.org/2000/svg">
<path d="M104.091 63.2169V39.535H111.248C112.897 39.535 114.291 39.7806 115.432 40.2718C116.589 40.763 117.519 41.4121 118.221 42.219C118.922 43.0084 119.431 43.8767 119.747 44.824C120.08 45.7537 120.247 46.6747 120.247 47.5869C120.247 48.4815 120.089 49.4025 119.773 50.3498C119.457 51.2795 118.94 52.1478 118.221 52.9548C117.519 53.7442 116.598 54.3845 115.458 54.8756C114.318 55.3668 112.914 55.6124 111.248 55.6124H108.669V63.2169H104.091ZM108.669 51.5075H110.985C112.107 51.5075 112.993 51.3146 113.642 50.9287C114.309 50.5252 114.782 50.0252 115.063 49.4288C115.361 48.8324 115.51 48.2184 115.51 47.5869C115.51 46.9729 115.37 46.3677 115.089 45.7713C114.809 45.1573 114.335 44.6486 113.669 44.2451C113.019 43.8416 112.125 43.6399 110.985 43.6399H108.669V51.5075ZM129.465 63.7432C127.903 63.7432 126.474 63.366 125.176 62.6117C123.877 61.8574 122.843 60.84 122.071 59.5594C121.316 58.2788 120.939 56.8667 120.939 55.323C120.939 53.7617 121.316 52.3496 122.071 51.0865C122.843 49.806 123.877 48.7885 125.176 48.0342C126.474 47.2799 127.903 46.9027 129.465 46.9027C131.043 46.9027 132.473 47.2799 133.754 48.0342C135.052 48.7885 136.078 49.806 136.832 51.0865C137.604 52.3496 137.99 53.7617 137.99 55.323C137.99 56.8667 137.604 58.2788 136.832 59.5594C136.078 60.84 135.052 61.8574 133.754 62.6117C132.473 63.366 131.043 63.7432 129.465 63.7432ZM129.465 59.6383C130.254 59.6383 130.965 59.4454 131.596 59.0594C132.245 58.6735 132.754 58.156 133.122 57.507C133.508 56.8404 133.701 56.1124 133.701 55.323C133.701 54.516 133.508 53.788 133.122 53.139C132.754 52.4899 132.245 51.9724 131.596 51.5865C130.965 51.2006 130.254 51.0076 129.465 51.0076C128.675 51.0076 127.956 51.2006 127.307 51.5865C126.675 51.9724 126.167 52.4899 125.781 53.139C125.412 53.788 125.228 54.516 125.228 55.323C125.228 56.1124 125.412 56.8404 125.781 57.507C126.167 58.156 126.675 58.6735 127.307 59.0594C127.956 59.4454 128.675 59.6383 129.465 59.6383ZM140.674 71.1109V47.429H144.621V48.9815C145.235 48.3675 145.954 47.8851 146.779 47.5343C147.621 47.1834 148.542 47.008 149.542 47.008C151.015 47.008 152.348 47.3851 153.541 48.1395C154.734 48.8762 155.681 49.8761 156.383 51.1392C157.102 52.4022 157.462 53.7968 157.462 55.323C157.462 56.8491 157.102 58.2437 156.383 59.5068C155.681 60.7522 154.734 61.7522 153.541 62.5065C152.348 63.2608 151.015 63.6379 149.542 63.6379C148.7 63.6379 147.919 63.5064 147.2 63.2432C146.481 62.9976 145.831 62.6556 145.253 62.217V71.1109H140.674ZM149.015 59.612C149.787 59.612 150.489 59.419 151.12 59.0331C151.752 58.6472 152.252 58.1297 152.62 57.4806C153.006 56.8316 153.199 56.1124 153.199 55.323C153.199 54.5336 153.006 53.8143 152.62 53.1653C152.252 52.5162 151.752 51.9987 151.12 51.6128C150.489 51.2269 149.787 51.0339 149.015 51.0339C148.244 51.0339 147.542 51.2269 146.91 51.6128C146.279 51.9987 145.77 52.5162 145.384 53.1653C145.016 53.8143 144.832 54.5336 144.832 55.323C144.832 56.1124 145.016 56.8316 145.384 57.4806C145.77 58.1297 146.279 58.6472 146.91 59.0331C147.542 59.419 148.244 59.612 149.015 59.612ZM160.19 63.2169V47.429H164.769V63.2169H160.19ZM162.479 45.1398C161.795 45.1398 161.216 44.9029 160.743 44.4293C160.269 43.9557 160.032 43.3768 160.032 42.6926C160.032 41.9909 160.269 41.4121 160.743 40.956C161.216 40.4823 161.795 40.2455 162.479 40.2455C163.181 40.2455 163.76 40.4823 164.216 40.956C164.69 41.4121 164.927 41.9909 164.927 42.6926C164.927 43.3768 164.69 43.9557 164.216 44.4293C163.76 44.9029 163.181 45.1398 162.479 45.1398ZM168.331 63.2169V37.9563H172.909V63.2169H168.331Z" fill="white"/>
<ellipse cx="57.746" cy="39.7041" rx="16.318" ry="30.8129" transform="rotate(-32.1189 57.746 39.7041)" fill="url(#paint0_linear_6_733)" fill-opacity="0.6"/>
<ellipse cx="60.2206" cy="63.0899" rx="9.91604" ry="20.0795" transform="rotate(-110.979 60.2206 63.0899)" fill="url(#paint1_linear_6_733)" fill-opacity="0.6"/>
<ellipse cx="64.4728" cy="68.6685" rx="9.91603" ry="20.0795" transform="rotate(-140.158 64.4728 68.6685)" fill="url(#paint2_linear_6_733)" fill-opacity="0.6"/>
<ellipse cx="46.6492" cy="45.8025" rx="18.6018" ry="35.3947" transform="rotate(-62.2571 46.6492 45.8025)" fill="url(#paint3_linear_6_733)" fill-opacity="0.6"/>
<path d="M91.1727 38.0399C91.6659 37.9457 92.1425 38.2686 92.237 38.7608C92.3314 39.253 92.0079 39.7288 91.5147 39.8231L89.8236 40.1462C89.4329 40.2209 89.1077 40.4491 88.9008 40.7534C88.6901 41.0632 88.5978 41.4491 88.6726 41.8392L90.151 49.5477C90.3889 50.826 90.0897 52.0698 89.4164 53.0602C88.7398 54.0584 87.6806 54.7975 86.4013 55.0419C85.1219 55.2864 83.8619 54.9904 82.8637 54.3123L82.8019 54.2663C81.8325 53.5875 81.117 52.5472 80.8779 51.3004C80.633 50.0234 80.9295 48.7656 81.6089 47.7694C82.2859 46.7735 83.347 46.0317 84.6263 45.7872C85.6987 45.5823 86.7595 45.7575 87.6633 46.2202L86.8881 42.1779C86.7202 41.3025 86.9271 40.4327 87.3973 39.7411C87.8713 39.044 88.6043 38.5284 89.4836 38.3604L91.1746 38.0373L91.1727 38.0399Z" fill="url(#paint4_linear_6_733)"/>
<defs>
<linearGradient id="paint0_linear_6_733" x1="57.746" y1="8.89122" x2="57.746" y2="70.517" gradientUnits="userSpaceOnUse">
<stop stop-color="#FEA500"/>
<stop offset="1" stop-color="#FF5900"/>
</linearGradient>
<linearGradient id="paint1_linear_6_733" x1="60.2206" y1="43.0105" x2="60.2206" y2="83.1694" gradientUnits="userSpaceOnUse">
<stop stop-color="#FEA500"/>
<stop offset="1" stop-color="#FF5900"/>
</linearGradient>
<linearGradient id="paint2_linear_6_733" x1="64.4728" y1="48.589" x2="64.4728" y2="88.7479" gradientUnits="userSpaceOnUse">
<stop stop-color="#FEA500"/>
<stop offset="1" stop-color="#FF5900"/>
</linearGradient>
<linearGradient id="paint3_linear_6_733" x1="46.6492" y1="10.4078" x2="46.6492" y2="81.1972" gradientUnits="userSpaceOnUse">
<stop stop-color="#FEA500"/>
<stop offset="1" stop-color="#FF5900"/>
</linearGradient>
<linearGradient id="paint4_linear_6_733" x1="85.4268" y1="39.1355" x2="88.3934" y2="54.6613" gradientUnits="userSpaceOnUse">
<stop stop-color="#FEA500"/>
<stop offset="1" stop-color="#FF5900"/>
</linearGradient>
</defs>
</svg>
